<svg width="501" height="351" viewBox="0 0 501 351" fill="none" xmlns="http://www.w3.org/2000/svg">
<path d="M395.075 45.545L393.115 45.8448C376.604 48.3199 362.615 59.4424 357.203 75.054C356.507 77.0609 355.96 79.1162 355.566 81.2033C352.73 96.2922 358.156 112.719 369.479 123.334C376.135 129.575 384.852 134.195 388.803 142.389C393.907 153.058 389.01 165.449 384.137 176.164C379.264 186.879 374.398 199.301 379.525 209.939C382.754 216.603 389.441 221.092 396.436 223.598C415.007 230.24 436.545 224.367 451.357 211.669C466.169 198.97 474.824 180.299 478.652 161.198C484.033 134.433 480.189 105.247 464.977 82.3025C449.766 59.3579 422.57 43.7924 395.075 45.545Z" fill="#CE492D"/>
<path d="M25.5354 133.407L26.796 134.045C31.9698 136.727 37.7786 137.943 43.5938 137.561C49.4089 137.179 55.0088 135.214 59.7871 131.878C61.0231 130.994 62.1921 130.02 63.2845 128.964C67.2138 125.079 70.1213 120.282 71.748 115C73.3748 109.719 73.6704 104.118 72.6084 98.6944C71.317 92.3068 68.1425 86.0038 69.2493 79.6085C70.6791 71.2838 78.6732 66.08 85.9217 61.8754C93.1702 57.6708 101.164 52.4439 102.563 44.1116C103.44 38.9 101.403 33.5194 98.3586 29.1611C90.2954 17.6311 75.3372 12.1198 61.4628 13.3958C47.5884 14.6717 34.8209 21.951 24.6976 31.4901C10.5157 44.8495 0.676844 63.4281 0.0311666 83.0751C-0.614511 102.722 8.80162 123.046 25.5354 133.407Z" fill="#CE492D"/>
<path d="M60.3327 295.626C76.2183 295.626 89.0961 282.748 89.0961 266.863C89.0961 250.977 76.2183 238.099 60.3327 238.099C44.4471 238.099 31.5693 250.977 31.5693 266.863C31.5693 282.748 44.4471 295.626 60.3327 295.626Z" fill="#CE492D"/>
<path d="M378.483 311.03C386.88 311.03 393.687 304.223 393.687 295.826C393.687 287.429 386.88 280.622 378.483 280.622C370.086 280.622 363.279 287.429 363.279 295.826C363.279 304.223 370.086 311.03 378.483 311.03Z" fill="#CE492D"/>
<path d="M156.454 31.8898C164.851 31.8898 171.658 25.0826 171.658 16.6856C171.658 8.28858 164.851 1.48145 156.454 1.48145C148.057 1.48145 141.25 8.28858 141.25 16.6856C141.25 25.0826 148.057 31.8898 156.454 31.8898Z" fill="#CE492D"/>
<path d="M379.328 216.054H388.145C388.145 216.054 368.805 79.9006 369.889 41.4828L368.521 216.054H379.328Z" fill="#E0E0E0"/>
<path d="M337.959 0.520616C337.959 0.520616 370.911 -1.47791 370.027 34.9721C367.476 140.51 379.889 219.897 379.889 219.897H256.434V4.29475L337.959 0.520616Z" fill="#EBEBEB"/>
<path d="M253.36 276.632L339.012 276.579C343.958 276.576 348.702 274.61 352.198 271.112C355.695 267.613 357.66 262.869 357.66 257.923L357.614 43.1891C357.615 40.7351 357.131 38.305 356.191 36.0381C355.251 33.7713 353.873 31.7122 352.136 29.9791C350.398 28.246 348.336 26.8728 346.067 25.9384C343.797 25.0039 341.366 24.5266 338.912 24.5336L253.26 24.5875C250.81 24.5864 248.384 25.0683 246.121 26.0056C243.857 26.9429 241.801 28.3171 240.069 30.0497C238.337 31.7823 236.964 33.8394 236.027 36.1032C235.091 38.367 234.61 40.7931 234.612 43.2429L234.651 257.977C234.651 260.431 235.135 262.862 236.076 265.128C237.017 267.395 238.396 269.454 240.134 271.187C241.872 272.92 243.935 274.293 246.204 275.228C248.474 276.162 250.905 276.639 253.36 276.632V276.632Z" fill="#455A64"/>
<path d="M253.36 32.1819H269.971H318.466H338.843C342.309 32.1819 345.632 33.5587 348.083 36.0093C350.533 38.4599 351.91 41.7836 351.91 45.2492L351.949 254.841C351.949 258.306 350.572 261.63 348.121 264.081C345.671 266.531 342.347 267.908 338.881 267.908L253.398 267.962C249.933 267.962 246.609 266.585 244.158 264.135C241.708 261.684 240.331 258.36 240.331 254.895L240.292 45.2492C240.292 41.7836 241.669 38.4599 244.12 36.0093C246.57 33.5587 249.894 32.1819 253.36 32.1819Z" fill="#EBEBEB"/>
<path d="M264.121 0.497559L346.091 1.26622C334.069 0.705098 331.502 5.48619 329.527 8.51472C325.768 14.3181 326.144 20.944 330.441 26.3708C332.942 29.3257 336.374 31.3424 340.173 32.0896H250.354C245.127 26.9627 244.036 21.4975 244.812 16.578C246.288 7.25412 254.613 0.497559 264.121 0.497559Z" fill="#EBEBEB"/>
<path d="M355.2 4.80201C355.015 4.71628 354.839 4.61061 354.677 4.48686C354.201 4.16423 353.706 3.87157 353.194 3.61058C351.286 2.66668 349.242 2.02858 347.137 1.71967C344.035 1.19609 340.856 1.36673 337.828 2.2193C334.147 3.40279 331.069 5.96823 329.242 9.37556C327.328 12.7306 326.692 16.6647 327.451 20.452C327.835 22.079 328.535 23.6147 329.511 24.9717C330.366 26.1673 331.383 27.2383 332.532 28.154C334.175 29.4992 336.019 30.5782 337.997 31.3517C339.396 31.8897 340.219 32.0665 340.203 32.1203C340.003 32.097 339.805 32.0558 339.611 31.9973C339.036 31.8633 338.469 31.6965 337.913 31.4977C335.889 30.776 334 29.7212 332.325 28.3769C331.157 27.4525 330.122 26.3713 329.25 25.1639C328.236 23.7842 327.507 22.2164 327.105 20.5519C326.297 16.6749 326.937 12.6362 328.904 9.19877C330.779 5.70266 333.945 3.07698 337.728 1.88109C340.811 1.03178 344.045 0.887282 347.19 1.45832C349.321 1.78309 351.381 2.46389 353.286 3.47222C353.798 3.7529 354.289 4.07151 354.754 4.42537C354.912 4.5401 355.061 4.66597 355.2 4.80201V4.80201Z" fill="#263238"/>
<path d="M358.667 6.73138C359.314 7.08712 359.922 7.50962 360.481 7.99199C362.096 9.348 363.539 10.8969 364.778 12.604C365.694 13.8294 366.504 15.1306 367.199 16.4934C368.04 18.1129 368.663 19.837 369.051 21.6204C369.49 23.5574 369.313 25.6713 369.39 27.8696C369.466 30.068 369.52 32.4201 369.589 34.8722C369.759 39.7839 369.981 45.1569 370.243 50.9296C370.243 53.8274 370.243 56.8021 370.197 59.8845C370.151 62.9668 370.197 66.126 370.197 69.3775C370.197 82.3602 370.473 96.642 371.035 111.654C372.118 141.632 374.332 168.681 376.277 188.228C377.276 198.006 378.16 205.908 378.798 211.357C379.121 214.078 379.375 216.192 379.567 217.637C379.644 218.355 379.705 218.901 379.751 219.275C379.751 219.644 379.797 219.836 379.797 219.836C379.797 219.836 379.797 219.651 379.705 219.282C379.613 218.913 379.582 218.36 379.482 217.653C379.298 216.2 379.021 214.094 378.667 211.38C377.976 205.923 377.053 198.029 376.015 188.259C374.002 168.712 371.742 141.647 370.635 111.669C370.074 96.6881 369.866 82.4063 369.866 69.3929C369.866 66.1414 369.866 62.9745 369.866 59.8999C369.866 56.8252 369.943 53.8351 369.935 50.9603C369.682 45.1876 369.482 39.807 369.328 34.8952C369.259 32.4432 369.197 30.1065 369.159 27.8927C369.121 25.6789 369.274 23.5805 368.852 21.6819C368.481 19.9133 367.876 18.2021 367.053 16.5933C366.371 15.2355 365.576 13.9371 364.678 12.7116C363.456 10.9965 362.037 9.43053 360.45 8.0458C360.206 7.83091 359.949 7.63071 359.681 7.44624C359.504 7.30086 359.319 7.16488 359.128 7.03885C358.813 6.84669 358.667 6.73138 358.667 6.73138Z" fill="#263238"/>
<path d="M351.902 162.916C351.902 162.916 350.826 247.569 344.062 259.922L224.796 258.384L227.225 248.215L351.941 94.8972L351.902 162.916Z" fill="#E0E0E0"/>
<path d="M351.902 45.1954C351.902 45.1954 349.766 232.811 337.728 249.222H221.506C221.506 249.222 248.248 108.441 240.292 45.2492L351.902 45.1954Z" fill="#F5F5F5"/>
<path d="M352.909 45.1954C352.909 45.1954 350.773 232.811 338.735 249.222H221.506C221.506 249.222 240.146 110.57 240.146 48.2623" fill="#FAFAFA"/>
<path d="M240.146 48.2623V49.2539C240.146 49.915 240.146 50.8988 240.146 52.1825C240.146 53.4662 240.146 55.0727 240.077 56.9636C240.008 58.8545 240.039 61.0452 239.916 63.5126C239.585 73.39 238.801 87.7486 237.41 105.697C234.543 141.586 229.255 191.787 221.729 249.253L221.537 249.03H338.735L338.582 249.106C339.523 247.564 340.238 245.895 340.703 244.149C341.195 242.404 341.633 240.651 341.987 238.883C342.755 235.355 343.286 231.819 343.785 228.314C344.769 221.296 345.484 214.371 346.091 207.56C347.314 193.978 348.144 180.949 348.836 168.604C350.181 143.907 350.949 121.954 351.51 103.66C352.072 85.3657 352.379 70.7534 352.587 60.6993C352.679 55.6799 352.756 51.7982 352.81 49.1694C352.81 47.8549 352.856 46.8634 352.863 46.1869C352.871 45.5105 352.863 45.1723 352.863 45.1723C352.863 45.1723 352.863 45.5105 352.863 46.1869C352.863 46.8634 352.863 47.8549 352.863 49.1694C352.825 51.7982 352.771 55.6799 352.71 60.6993C352.54 70.7534 352.264 85.3811 351.749 103.668C351.234 121.954 350.488 143.923 349.158 168.62C348.482 180.972 347.659 193.986 346.445 207.591C345.822 214.386 345.115 221.312 344.139 228.345C343.639 231.858 343.086 235.401 342.348 238.937C341.987 240.713 341.579 242.481 341.049 244.233C340.577 246.024 339.844 247.736 338.874 249.314L338.82 249.399H221.283V249.176C228.824 191.741 234.166 141.563 237.095 105.651C238.525 87.7102 239.347 73.3669 239.724 63.4896C239.854 61.0221 239.877 58.8315 239.916 56.9405C239.954 55.0496 239.985 53.4508 240.016 52.1595C240.047 50.8681 240.062 49.8535 240.077 49.2308C240.093 48.6082 240.146 48.2623 240.146 48.2623Z" fill="#263238"/>
<path d="M351.926 44.9571C351.926 44.9571 351.664 31.8898 338.858 31.8898C326.052 31.8898 250.385 31.8898 250.385 31.8898C250.385 31.8898 240.292 34.6878 240.292 45.8872L319.334 51.9596L351.926 44.9571Z" fill="#FAFAFA"/>
<path d="M264.121 0.497609H263.906C263.767 0.497609 263.552 0.497609 263.276 0.497609C262.462 0.506274 261.65 0.575647 260.847 0.705149C257.824 1.17598 254.966 2.39105 252.53 4.241C248.853 7.14713 246.216 11.165 245.012 15.6941C244.358 18.4452 244.478 21.3237 245.358 24.011C245.81 25.4552 246.456 26.8309 247.28 28.1003C248.109 29.439 249.109 30.6638 250.254 31.7438L250.131 31.6977H272.722L320.087 31.8514L334.446 31.9436L338.343 31.9898H339.358H339.704C339.704 31.9898 339.588 31.9898 339.358 31.9898H338.343H334.446H320.087H272.722L250.131 31.936H250.054L250.008 31.8898C248.83 30.7825 247.796 29.5298 246.934 28.1618C246.106 26.8584 245.453 25.4527 244.989 23.9803C244.103 21.2296 243.994 18.2876 244.674 15.4789C245.91 10.9002 248.609 6.85117 252.36 3.94891C253.761 2.87895 255.316 2.02877 256.972 1.42769C258.212 0.961913 259.502 0.642046 260.816 0.47455C261.625 0.355024 262.443 0.306157 263.26 0.328504C263.551 0.361775 263.839 0.418325 264.121 0.497609V0.497609Z" fill="#263238"/>
<path d="M351.941 120.74C351.941 120.74 351.941 120.97 351.941 121.408C351.941 121.847 351.941 122.515 351.941 123.376V130.917C351.941 137.466 351.879 146.951 351.756 158.666C351.633 170.38 351.441 184.331 350.926 199.812C350.665 207.553 350.296 215.685 349.512 224.079C348.728 232.473 347.644 241.143 346.137 249.96C345.546 253.411 344.915 256.809 344.223 259.991L344.185 260.145H344.062C310.641 260.068 280.824 259.522 259.363 259.153L234.035 258.646L227.179 258.484L225.403 258.43H224.796H225.403H227.187L234.035 258.523L259.401 258.907C280.862 259.199 310.679 259.676 344.093 259.768L343.901 259.922C344.592 256.762 345.223 253.357 345.815 249.929C347.313 241.128 348.397 232.465 349.189 224.079C349.981 215.693 350.357 207.576 350.626 199.835C351.164 184.362 351.357 170.411 351.541 158.696C351.726 146.982 351.779 137.52 351.856 130.955C351.856 127.688 351.91 125.144 351.925 123.415C351.925 122.554 351.925 121.877 351.925 121.447C351.925 121.016 351.941 120.74 351.941 120.74Z" fill="#263238"/>
<path d="M344.154 53.4355C340.503 53.7021 336.837 53.7021 333.186 53.4355C336.837 53.169 340.503 53.169 344.154 53.4355V53.4355Z" fill="#263238"/>
<path d="M344.154 50.5684C340.503 50.8349 336.837 50.8349 333.186 50.5684C336.837 50.3018 340.503 50.3018 344.154 50.5684V50.5684Z" fill="#263238"/>
<path d="M344.154 47.7166C340.503 47.9831 336.837 47.9831 333.186 47.7166C336.837 47.45 340.503 47.45 344.154 47.7166V47.7166Z" fill="#263238"/>
<path d="M252.952 55.2879H253.191H253.844L256.265 55.2264L256.196 55.2956C256.196 54.7575 256.196 54.1733 256.196 53.543C256.196 53.2125 256.196 52.905 256.196 52.5284C256.23 52.3291 256.328 52.1463 256.475 52.0076C256.622 51.869 256.81 51.7819 257.011 51.7597C257.403 51.7597 257.741 51.7597 258.164 51.7597C258.381 51.8025 258.576 51.9195 258.717 52.0906C258.857 52.2617 258.933 52.4763 258.933 52.6975C258.933 53.52 258.933 54.3732 258.933 55.2571L258.817 55.1495H261.892L261.777 55.2648C261.777 54.035 261.777 52.7667 261.777 51.4215C261.777 51.0987 261.777 50.7758 261.777 50.453C261.763 50.3082 261.717 50.1684 261.643 50.0434C261.568 49.9185 261.467 49.8116 261.346 49.7305L260.009 48.416L258.74 47.1247L258.11 46.5098C257.895 46.3022 257.726 46.087 257.48 46.0409C257.361 46.0077 257.236 46.0023 257.115 46.025C256.994 46.0476 256.879 46.0978 256.78 46.1715C256.596 46.3253 256.396 46.5482 256.212 46.7327L255.112 47.8395C254.428 48.5544 253.706 49.2078 253.183 49.8227C253.028 50.1833 252.975 50.5794 253.029 50.968V52.0441C253.029 52.7052 253.029 53.2817 253.029 53.7736C253.029 54.2656 253.029 54.5884 253.029 54.8882C253.029 55.188 253.029 55.2802 253.029 55.2879C253.019 55.1651 253.019 55.0417 253.029 54.9189C253.029 54.6268 253.029 54.2656 253.029 53.8274C253.029 53.3893 253.029 52.7436 253.029 52.0749V50.9834C253.029 50.7835 253.029 50.5837 253.029 50.3761C253.029 50.1523 253.087 49.9323 253.198 49.7381C253.767 49.0463 254.436 48.4314 255.135 47.7012L256.219 46.5866C256.419 46.3868 256.58 46.2023 256.811 45.9948C256.936 45.902 257.081 45.8387 257.234 45.8094C257.387 45.7801 257.544 45.7857 257.695 45.8256C257.996 45.922 258.263 46.1035 258.464 46.3483L259.086 46.9633L260.385 48.2316L261.723 49.546C261.847 49.6581 261.96 49.7816 262.061 49.9149C262.16 50.0689 262.216 50.2468 262.222 50.4299C262.222 50.7528 262.222 51.0756 262.222 51.4061C262.222 52.7052 262.222 53.9812 262.222 55.2495V55.3648H262.107H259.033H258.74V55.2571C258.74 54.3655 258.74 53.5123 258.74 52.6898C258.744 52.5089 258.683 52.3326 258.569 52.192C258.455 52.0514 258.295 51.9555 258.118 51.9211C257.772 51.9211 257.349 51.9211 257.011 51.9211C256.853 51.9414 256.706 52.0098 256.589 52.1172C256.472 52.2246 256.391 52.3655 256.358 52.5207C256.358 52.8282 256.358 53.1818 256.358 53.4969V55.3186H256.288H253.829H253.183L252.952 55.2879Z" fill="#263238"/>
<path d="M286.297 50.2609H284.806V49.1694H289.164V50.2609H287.673V54.0273H286.297V50.2609Z" fill="#CE492D"/>
<path d="M292.692 53.0972H290.632L290.256 54.035H288.849L291.024 49.1694H292.377L294.53 54.0273H293.1L292.692 53.0972ZM292.285 52.0826L291.662 50.5453L291.04 52.0826H292.285Z" fill="#CE492D"/>
<path d="M294.552 53.5969L295.006 52.5822C295.485 52.8854 296.038 53.0503 296.605 53.0588C297.174 53.0588 297.373 52.8974 297.373 52.6591C297.373 51.8904 294.614 52.4515 294.614 50.6529C294.614 49.7843 295.321 49.1155 296.766 49.1155C297.38 49.102 297.986 49.2477 298.526 49.5383L298.104 50.5529C297.692 50.322 297.23 50.1953 296.759 50.184C296.182 50.184 295.99 50.3762 295.99 50.6144C295.99 51.3831 298.742 50.8066 298.742 52.5976C298.742 53.4431 298.035 54.1349 296.589 54.1349C295.874 54.1488 295.168 53.9624 294.552 53.5969V53.5969Z" fill="#CE492D"/>
<path d="M301.263 52.2671L300.748 52.8128V54.0273H299.387V49.1694H300.748V51.191L302.631 49.1694H304.169L302.178 51.3216L304.268 54.0273H302.67L301.263 52.2671Z" fill="#CE492D"/>
<path d="M304.161 53.5968L304.614 52.5822C305.095 52.8867 305.652 53.0517 306.221 53.0588C306.79 53.0588 306.99 52.8974 306.99 52.6591C306.99 51.8904 304.222 52.4515 304.222 50.6529C304.222 49.7843 304.93 49.1155 306.375 49.1155C306.991 49.1021 307.599 49.2477 308.143 49.5383L307.72 50.5529C307.306 50.3219 306.841 50.1953 306.367 50.184C305.79 50.184 305.598 50.3761 305.598 50.6144C305.598 51.3831 308.358 50.8066 308.358 52.5976C308.358 53.4431 307.651 54.1349 306.206 54.1349C305.487 54.1478 304.78 53.9616 304.161 53.5968Z" fill="#CE492D"/>
<path d="M350.35 66.0954C350.35 66.203 325.537 66.2952 294.944 66.2952C264.352 66.2952 239.531 66.203 239.531 66.0954C239.531 65.9877 264.336 65.8955 294.944 65.8955C325.553 65.8955 350.35 65.9877 350.35 66.0954Z" fill="#E0E0E0"/>
<path d="M351.303 104.375C351.303 104.482 326.498 104.575 295.898 104.575C265.297 104.575 240.492 104.482 240.492 104.375C240.492 104.267 265.29 104.175 295.898 104.175C326.506 104.175 351.303 104.259 351.303 104.375Z" fill="#E0E0E0"/>
<path d="M350.073 141.094C350.073 141.202 324.223 141.294 292.346 141.294C260.47 141.294 234.612 141.202 234.612 141.094C234.612 140.986 260.455 140.894 292.346 140.894C324.238 140.894 350.073 140.979 350.073 141.094Z" fill="#E0E0E0"/>
<path d="M348.52 176.891C348.52 177.006 322.002 177.09 289.333 177.09C256.665 177.09 230.146 177.006 230.146 176.891C230.146 176.775 256.65 176.691 289.333 176.691C322.017 176.691 348.52 176.783 348.52 176.891Z" fill="#E0E0E0"/>
<path d="M344.831 217.161C344.831 217.276 318.212 217.361 285.39 217.361C252.568 217.361 225.949 217.276 225.949 217.161C225.949 217.046 252.56 216.961 285.39 216.961C318.22 216.961 344.831 217.053 344.831 217.161Z" fill="#E0E0E0"/>
<path d="M262.238 92.5758C262.229 92.4915 262.229 92.4065 262.238 92.3222C262.238 92.13 262.238 91.8994 262.238 91.6227C262.238 90.9693 262.238 90.0854 262.192 89.0015C262.192 86.6956 262.146 83.5517 262.107 79.7776L262.284 79.9467H249.47L249.67 79.7468V83.1828C249.67 84.305 249.67 85.4119 249.67 86.488C249.67 88.6403 249.67 90.6695 249.67 92.5297L249.493 92.3606L258.717 92.4452L261.339 92.4913H262.038H262.299C262.004 92.5273 261.706 92.5427 261.408 92.5374L258.825 92.5758L249.486 92.6681H249.317V92.4913C249.317 90.6311 249.317 88.6018 249.317 86.4496C249.317 85.3734 249.317 84.2666 249.317 83.1443V79.7084L249.517 79.5085H262.33H262.499V79.6853C262.499 83.5287 262.43 86.7263 262.415 89.0246C262.415 90.1007 262.376 90.9693 262.369 91.6073C262.361 92.2453 262.246 92.5912 262.238 92.5758Z" fill="#263238"/>
<path d="M335.945 85.3043C335.945 85.4119 321.34 85.5041 303.284 85.5041C285.228 85.5041 270.624 85.4119 270.624 85.3043C270.624 85.1967 285.228 85.1044 303.284 85.1044C321.34 85.1044 335.945 85.189 335.945 85.3043Z" fill="#263238"/>
<path d="M304.322 90.3775C304.322 90.4928 296.781 90.585 287.473 90.585C278.164 90.585 270.624 90.4928 270.624 90.3775C270.624 90.2622 278.164 90.1776 287.473 90.1776C296.781 90.1776 304.322 90.2698 304.322 90.3775Z" fill="#263238"/>
<path d="M262.584 72.998C263.114 73.1364 262.107 78.7246 259.855 85.2966C259.571 86.1191 259.286 86.9185 259.002 87.6872L258.571 88.8171L258.356 89.3629L258.295 89.5012C258.263 89.5886 258.224 89.6733 258.179 89.7549C258.085 89.914 257.971 90.0611 257.841 90.193C257.586 90.4339 257.27 90.5995 256.926 90.6714C256.583 90.7433 256.227 90.7187 255.897 90.6004C255.594 90.4789 255.329 90.2801 255.128 90.0239L254.997 89.8317L254.928 89.7088L254.797 89.4782C254.474 88.8786 254.198 88.3021 253.959 87.7794C253.014 85.6733 252.645 84.2897 252.883 84.1744C253.122 84.0591 253.959 85.2121 255.189 87.0953L256.204 88.6326L256.35 88.8325L256.412 88.9247H256.473C256.511 88.9247 256.565 88.9247 256.558 88.8709L256.604 88.7402L256.788 88.1868C256.911 87.8102 257.034 87.4181 257.165 87.0492L257.933 84.6663C260.17 78.1558 262.03 72.8597 262.584 72.998Z" fill="#CE492D"/>
<path d="M260.831 131.17C260.825 131.086 260.825 131.001 260.831 130.917C260.831 130.725 260.831 130.494 260.831 130.217C260.831 129.561 260.816 128.685 260.785 127.588C260.785 125.282 260.731 122.146 260.7 118.364L260.87 118.534H248.064L248.263 118.334V121.777C248.263 122.907 248.263 124.014 248.263 125.09C248.263 127.235 248.263 129.264 248.263 131.132L248.094 130.963L257.318 131.047L259.939 131.094H260.639C260.723 131.083 260.808 131.083 260.893 131.094C260.599 131.124 260.304 131.137 260.009 131.132L257.426 131.178L248.087 131.27H247.91V131.094C247.91 129.226 247.91 127.196 247.91 125.052C247.91 123.976 247.91 122.869 247.91 121.739V118.295C247.725 118.472 248.148 118.049 248.11 118.095H260.916H261.046V118.272C261.008 122.116 260.977 125.306 260.954 127.612C260.954 128.688 260.939 129.549 260.908 130.194C260.911 130.521 260.885 130.848 260.831 131.17V131.17Z" fill="#263238"/>
<path d="M334.546 123.891C334.546 124.006 319.941 124.099 301.885 124.099C283.83 124.099 269.217 124.006 269.217 123.891C269.217 123.776 283.822 123.691 301.885 123.691C319.949 123.691 334.546 123.814 334.546 123.891Z" fill="#263238"/>
<path d="M258.848 167.082C258.848 167.082 258.848 166.99 258.848 166.829C258.848 166.667 258.848 166.406 258.848 166.129C258.848 165.476 258.848 164.592 258.802 163.508C258.802 161.202 258.756 158.058 258.717 154.284L258.887 154.453H246.081L246.28 154.253V157.682C246.28 158.812 246.28 159.918 246.28 160.995C246.28 163.147 246.28 165.176 246.28 167.036L246.111 166.867L255.335 166.952L257.956 166.998H258.656H258.91C258.616 167.035 258.321 167.05 258.026 167.044L255.443 167.082L246.104 167.175H245.935V166.998C245.935 165.138 245.935 163.108 245.935 160.956C245.935 159.88 245.935 158.773 245.935 157.643V154.215L246.134 154.015H258.94H259.117V154.192C259.079 158.035 259.048 161.225 259.025 163.531C259.025 164.607 259.025 165.476 258.986 166.114C258.966 166.44 258.92 166.764 258.848 167.082V167.082Z" fill="#263238"/>
<path d="M332.532 159.811C332.532 159.918 317.928 160.011 299.872 160.011C281.816 160.011 267.211 159.918 267.211 159.811C267.211 159.703 281.816 159.611 299.872 159.611C317.928 159.611 332.532 159.696 332.532 159.811Z" fill="#263238"/>
<path d="M255.75 205.093C255.741 205.009 255.741 204.923 255.75 204.839C255.75 204.647 255.75 204.416 255.75 204.14C255.75 203.486 255.75 202.602 255.704 201.519C255.704 199.213 255.65 196.069 255.612 192.295L255.789 192.464H242.983C242.937 192.51 243.36 192.087 243.175 192.264V199.005C243.175 201.157 243.175 203.187 243.175 205.047L242.998 204.878L252.222 204.962L254.843 205.008H255.551H255.804C255.511 205.045 255.216 205.06 254.92 205.054L252.338 205.093L242.991 205.185H242.821V205.008C242.821 203.148 242.821 201.119 242.821 198.967V195.661C242.821 195.092 242.821 194.524 242.821 193.947V192.225C242.645 192.402 243.067 191.979 243.029 192.026H255.835H256.012V192.202C256.012 196.046 255.95 199.243 255.927 201.542C255.927 202.618 255.927 203.486 255.881 204.124C255.859 204.45 255.816 204.773 255.75 205.093V205.093Z" fill="#263238"/>
<path d="M329.457 197.821C329.457 197.929 314.853 198.021 296.797 198.021C278.741 198.021 264.129 197.929 264.129 197.821C264.129 197.714 278.733 197.621 296.797 197.621C314.86 197.621 329.457 197.706 329.457 197.821Z" fill="#263238"/>
<path d="M253.906 241.151C253.906 241.151 253.906 241.059 253.906 240.897C253.906 240.736 253.906 240.474 253.906 240.19C253.906 239.544 253.906 238.653 253.859 237.569C253.859 235.263 253.813 232.127 253.775 228.345L253.944 228.522H241.138L241.338 228.322V231.765C241.338 232.895 241.338 234.002 241.338 235.078C241.338 237.223 241.338 239.252 241.338 241.12L241.161 240.943L250.385 241.036L253.006 241.082H253.706H253.959C253.959 241.082 253.667 241.082 253.075 241.12L250.493 241.166L241.153 241.251H240.984V241.082C240.984 239.214 240.984 237.185 240.984 235.04C240.984 233.964 240.984 232.857 240.984 231.727V228.353L241.184 228.153H253.99H254.167V228.353C254.129 232.196 254.098 235.394 254.082 237.692C254.082 238.778 254.067 239.639 254.036 240.275C254.013 240.569 253.969 240.862 253.906 241.151Z" fill="#263238"/>
<path d="M329.896 233.234C329.896 233.341 315.291 233.433 297.235 233.433C279.179 233.433 264.567 233.341 264.567 233.234C264.567 233.126 279.172 233.034 297.235 233.034C315.299 233.034 329.896 233.126 329.896 233.234Z" fill="#263238"/>
<path d="M318.035 164.738C318.035 164.853 306.544 164.938 292.362 164.938C278.18 164.938 266.688 164.853 266.688 164.738C266.688 164.623 278.218 164.538 292.362 164.538C306.505 164.538 318.035 164.63 318.035 164.738Z" fill="#263238"/>
<path d="M285.352 204.017C285.352 204.132 280.701 204.217 274.959 204.217C269.217 204.217 264.567 204.132 264.567 204.017C264.567 203.901 269.217 203.817 274.959 203.817C280.701 203.817 285.352 203.909 285.352 204.017Z" fill="#263238"/>
<path d="M337.352 0.6437C337.352 0.751313 320.994 0.843553 300.825 0.843553C280.655 0.843553 264.29 0.751313 264.29 0.6437C264.29 0.536087 280.647 0.443848 300.825 0.443848C321.002 0.443848 337.352 0.536087 337.352 0.6437Z" fill="#263238"/>
<path d="M501 331.085C501 331.192 394.924 331.284 264.128 331.284C133.333 331.284 27.2417 331.192 27.2417 331.085C27.2417 330.977 133.317 330.885 264.128 330.885C394.94 330.885 501 330.977 501 331.085Z" fill="#263238"/>
<path d="M153.879 126.474C153.879 126.474 173.565 154.146 177.254 155.345C189.884 159.542 203.85 130.479 203.85 130.479L196.34 132.131L182.558 140.825L167.515 120.255L153.879 128.103" fill="#A57E6D"/>
<path d="M179.66 149.226C179.502 148.796 179.44 148.338 179.476 147.881C179.467 145.662 180.258 143.514 181.705 141.832C181.98 141.467 182.325 141.161 182.72 140.932C181.776 142.1 181 143.394 180.414 144.776C179.953 146.216 179.7 147.715 179.66 149.226V149.226Z" fill="#755246"/>
<path d="M182.412 311.56L185.225 324.789L194.488 325.619L198.393 321.23L194.818 305.434L182.412 311.56Z" fill="#A57E6D"/>
<path d="M126.023 309.216C125.892 309.646 126.023 326.127 126.023 326.127L131.219 329.201L138.006 325.127L139.444 309.193L126.023 309.216Z" fill="#A57E6D"/>
<path d="M121.611 166.675C121.611 166.675 114.947 179.281 112.087 189.589C109.228 199.897 106.499 205.785 109.443 215.039C112.387 224.294 116.315 259.368 118.252 268.623C119.843 276.248 123.371 306.103 125.938 315.565H140.366L141.834 209.566C141.834 209.566 167.485 269.092 170.429 276.24C173.373 283.389 181.997 313.905 181.997 313.905L196.932 311.599C196.932 311.599 187.885 258.815 185.149 246.193C182.412 233.572 174.633 199.305 171.482 188.543C168.33 177.782 168.653 170.38 164.179 165.161L121.611 166.675Z" fill="#263238"/>
<path d="M143.779 168.75C143.779 168.75 143.856 168.635 144.063 168.551C144.375 168.442 144.713 168.442 145.024 168.551C145.264 168.631 145.478 168.774 145.644 168.964C145.81 169.155 145.923 169.386 145.97 169.634C146.036 169.942 146.005 170.263 145.883 170.554C145.76 170.844 145.552 171.09 145.285 171.257C145.018 171.425 144.706 171.507 144.392 171.492C144.077 171.476 143.775 171.365 143.525 171.172C143.323 171.021 143.164 170.819 143.066 170.587C142.967 170.354 142.932 170.1 142.964 169.85C142.997 169.523 143.144 169.218 143.379 168.989C143.541 168.827 143.664 168.796 143.679 168.812C143.44 169.116 143.29 169.48 143.249 169.865C143.238 170.061 143.277 170.256 143.363 170.433C143.449 170.609 143.579 170.76 143.741 170.872C143.93 171.014 144.159 171.095 144.396 171.105C144.632 171.115 144.867 171.054 145.068 170.928C145.269 170.803 145.428 170.619 145.523 170.402C145.618 170.185 145.645 169.944 145.601 169.711C145.572 169.517 145.495 169.334 145.375 169.179C145.255 169.025 145.097 168.903 144.917 168.827C144.554 168.688 144.157 168.661 143.779 168.75V168.75Z" fill="#455A64"/>
<path d="M147.96 196.138C147.849 196.183 147.733 196.217 147.615 196.238C147.376 196.292 147.03 196.353 146.585 196.407C145.307 196.561 144.014 196.54 142.741 196.345C142.314 196.284 141.89 196.197 141.473 196.084C141.234 196.01 141.016 195.881 140.835 195.707C140.652 195.515 140.531 195.271 140.489 195.008C140.366 194.016 140.374 193.032 140.312 191.933C140.22 189.796 140.128 187.452 140.02 185.015C139.828 180.088 139.674 175.63 139.582 172.402C139.582 170.864 139.513 169.542 139.49 168.558V167.521C139.47 167.401 139.47 167.279 139.49 167.159C139.525 167.276 139.544 167.398 139.544 167.521C139.544 167.805 139.597 168.143 139.628 168.558C139.682 169.519 139.751 170.81 139.843 172.402C140.005 175.63 140.205 180.088 140.397 185.008C140.489 187.467 140.581 189.812 140.658 191.926C140.712 192.979 140.697 194.039 140.789 194.931C140.82 195.132 140.91 195.319 141.046 195.469C141.183 195.619 141.361 195.726 141.558 195.777C141.956 195.894 142.362 195.987 142.772 196.053C144.021 196.266 145.29 196.328 146.554 196.238C147.461 196.192 147.953 196.069 147.96 196.138Z" fill="#455A64"/>
<path d="M168.33 178.697C168.158 178.874 167.958 179.022 167.738 179.135C167.155 179.472 166.529 179.73 165.878 179.904C164.797 180.203 163.666 180.275 162.555 180.115C161.445 179.955 160.38 179.566 159.427 178.974C158.475 178.382 157.655 177.599 157.02 176.674C156.386 175.749 155.949 174.703 155.739 173.601C155.607 172.938 155.563 172.261 155.609 171.587C155.608 171.325 155.653 171.065 155.739 170.818C155.748 171.719 155.841 172.617 156.016 173.501C156.25 174.553 156.692 175.547 157.316 176.426C157.94 177.305 158.733 178.05 159.649 178.618C160.565 179.186 161.585 179.565 162.649 179.733C163.714 179.901 164.801 179.854 165.847 179.596C166.701 179.374 167.532 179.073 168.33 178.697Z" fill="#455A64"/>
<path d="M149.713 173.07C149.383 170.937 149.313 168.771 149.506 166.621C149.846 168.754 149.916 170.92 149.713 173.07V173.07Z" fill="#455A64"/>
<path d="M152.211 172.609C152.118 171.55 152.118 170.485 152.211 169.427C152.171 168.365 152.233 167.302 152.396 166.252C152.636 167.297 152.708 168.374 152.611 169.442C152.648 170.512 152.513 171.582 152.211 172.609V172.609Z" fill="#455A64"/>
<path d="M166.132 170.933C166.132 170.933 166.009 170.987 165.747 171.041L164.633 171.272C163.664 171.471 162.25 171.71 160.498 171.963C151.351 173.272 142.079 173.461 132.887 172.524C131.127 172.34 129.705 172.156 128.729 172.002L127.606 171.817C127.472 171.806 127.34 171.775 127.214 171.725C127.347 171.706 127.481 171.706 127.614 171.725L128.752 171.833C129.728 171.94 131.158 172.079 132.918 172.225C137.501 172.605 142.101 172.754 146.7 172.671C151.301 172.57 155.893 172.234 160.459 171.664C162.212 171.448 163.634 171.256 164.61 171.102L165.74 170.949C165.87 170.932 166.001 170.926 166.132 170.933V170.933Z" fill="#455A64"/>
<path d="M128.475 173.009C128.22 173.653 127.844 174.243 127.368 174.746C126.289 176.047 124.916 177.073 123.364 177.741C121.811 178.409 120.123 178.7 118.436 178.589C117.743 178.582 117.057 178.444 116.415 178.182C116.415 178.113 117.183 178.29 118.452 178.305C120.086 178.334 121.708 178.014 123.208 177.366C124.709 176.718 126.054 175.756 127.153 174.546C128.014 173.654 128.413 173.009 128.475 173.009Z" fill="#455A64"/>
<path d="M147.43 191.326C147.315 191.326 147.184 187.567 147.138 182.94C147.092 178.313 147.138 174.546 147.246 174.546C147.353 174.546 147.484 178.297 147.538 182.932C147.592 187.567 147.538 191.326 147.43 191.326Z" fill="#455A64"/>
<path d="M141.942 209.136C141.773 207.497 141.737 205.846 141.834 204.201C141.803 202.554 141.9 200.906 142.127 199.274C142.295 200.913 142.331 202.564 142.234 204.209C142.271 205.856 142.173 207.504 141.942 209.136V209.136Z" fill="#455A64"/>
<path d="M165.732 199.336C164.942 199.541 164.138 199.687 163.326 199.774C161.835 200.012 159.775 200.342 157.515 200.758C155.255 201.173 153.211 201.611 151.735 201.934C150.945 202.142 150.141 202.294 149.329 202.387C150.071 202.057 150.843 201.8 151.635 201.618C153.103 201.226 155.14 200.75 157.408 200.327C159.675 199.904 161.75 199.62 163.257 199.459C164.076 199.337 164.905 199.296 165.732 199.336V199.336Z" fill="#455A64"/>
<path d="M167.961 202.871C167.026 202.958 166.087 202.989 165.148 202.964C163.411 202.964 161.013 203.048 158.368 203.187C155.724 203.325 153.334 203.509 151.596 203.655C150.666 203.776 149.729 203.84 148.791 203.848C149.036 203.748 149.296 203.691 149.559 203.678C150.036 203.586 150.735 203.486 151.596 203.379C153.326 203.156 155.724 202.917 158.376 202.779C161.028 202.641 163.441 202.641 165.179 202.687C166.055 202.687 166.716 202.741 167.239 202.771C167.483 202.771 167.726 202.804 167.961 202.871V202.871Z" fill="#455A64"/>
<path d="M136.292 200.565C135.614 200.356 134.951 200.099 134.309 199.797C132.734 199.145 131.125 198.578 129.49 198.098C127.854 197.63 126.194 197.25 124.517 196.96C123.811 196.88 123.112 196.749 122.426 196.568C123.137 196.514 123.853 196.55 124.555 196.676C127.976 197.1 131.307 198.065 134.425 199.535C135.087 199.802 135.714 200.148 136.292 200.565V200.565Z" fill="#455A64"/>
<path d="M200.237 319.762V320.792C200.237 320.792 217.971 327.333 218.255 330.654L183.442 331.477L183.642 319.877C188.907 322.13 194.326 322.299 200.237 319.762Z" fill="#CE492D"/>
<g opacity="0.6">
<path d="M187.255 323.498C186.922 323.607 186.642 323.836 186.467 324.139C186.293 324.443 186.237 324.8 186.309 325.143C186.406 325.479 186.629 325.765 186.93 325.942C187.232 326.119 187.59 326.174 187.931 326.096C188.284 325.981 188.581 325.738 188.764 325.415C188.948 325.092 189.004 324.713 188.923 324.351C188.784 324.011 188.519 323.738 188.185 323.588C187.85 323.438 187.47 323.422 187.124 323.544" fill="white"/>
</g>
<g opacity="0.6">
<path d="M183.473 331.476L183.519 328.686L216.864 328.917C216.864 328.917 218.401 329.555 218.286 330.654L183.473 331.476Z" fill="white"/>
</g>
<path d="M200.391 320.892C200.391 321.061 199.546 321.153 198.723 321.722C197.901 322.291 197.47 323.014 197.309 322.952C197.147 322.891 197.386 321.899 198.393 321.23C199.4 320.561 200.43 320.731 200.391 320.892Z" fill="#263238"/>
<path d="M204.081 322.314C204.127 322.475 203.397 322.783 202.836 323.513C202.274 324.243 202.121 325.012 201.952 325.012C201.782 325.012 201.652 324.051 202.367 323.152C203.082 322.252 204.073 322.13 204.081 322.314Z" fill="#263238"/>
<path d="M206.256 326.634C206.102 326.672 205.849 325.827 206.256 324.889C206.664 323.951 207.455 323.559 207.532 323.698C207.609 323.836 207.125 324.351 206.763 325.127C206.402 325.904 206.425 326.611 206.256 326.634Z" fill="#263238"/>
<path d="M138.491 323.713C138.491 323.713 129.267 330.27 124.77 324.589L123.602 327.349L118.344 346.957C118.166 347.572 118.219 348.231 118.492 348.81C118.765 349.388 119.24 349.848 119.827 350.101C120.278 350.281 120.771 350.328 121.248 350.237C121.725 350.145 122.165 349.92 122.518 349.586C126.315 345.974 140.243 332.591 140.105 330.777L140.051 325.965C140.047 325.48 139.899 325.006 139.626 324.605C139.352 324.204 138.965 323.893 138.514 323.713H138.491Z" fill="#CE492D"/>
<g opacity="0.6">
<path d="M120.281 350.232L140.113 329.101V330.154C140.212 331.3 139.721 331.746 139.175 332.46C137.568 334.628 133.133 339.463 122.595 349.571C122.295 349.862 121.927 350.074 121.524 350.187C121.121 350.3 120.696 350.31 120.289 350.217L120.281 350.232Z" fill="white"/>
</g>
<g opacity="0.6">
<path d="M137.207 325.973C136.901 326.196 136.688 326.523 136.608 326.894C136.529 327.264 136.589 327.65 136.777 327.979C136.99 328.292 137.314 328.513 137.684 328.596C138.054 328.679 138.441 328.617 138.767 328.425C139.093 328.188 139.318 327.839 139.399 327.445C139.48 327.051 139.411 326.641 139.206 326.296C138.951 325.992 138.589 325.799 138.195 325.756C137.801 325.713 137.406 325.824 137.092 326.065" fill="white"/>
</g>
<path d="M126 339.417C125.854 339.478 125.3 338.179 123.824 337.472C122.349 336.765 121.003 337.072 120.973 336.919C120.942 336.765 121.265 336.665 121.849 336.58C122.613 336.501 123.384 336.643 124.07 336.988C124.766 337.322 125.344 337.858 125.731 338.525C126.023 339.04 126.061 339.394 126 339.417Z" fill="#263238"/>
<path d="M124.224 342.73C124.101 342.837 123.309 342.03 122.026 341.654C120.742 341.277 119.643 341.485 119.604 341.331C119.566 341.177 120.734 340.685 122.187 341.131C123.64 341.577 124.347 342.661 124.224 342.73Z" fill="#263238"/>
<path d="M129.305 335.197C129.19 335.312 127.975 334.059 126.031 333.306C124.086 332.553 122.356 332.599 122.349 332.437C122.341 332.276 124.155 331.961 126.23 332.799C128.306 333.636 129.428 335.097 129.305 335.197Z" fill="#263238"/>
<path d="M129.743 329.194C129.682 329.347 128.306 328.771 126.522 328.694C124.739 328.617 123.325 329.048 123.271 328.894C123.217 328.74 124.632 328.048 126.553 328.125C128.475 328.202 129.828 329.086 129.743 329.194Z" fill="#263238"/>
<path d="M125.508 328.64C125.486 328.324 125.534 328.006 125.646 327.71C125.886 326.87 126.291 326.086 126.838 325.404C127.188 324.875 127.705 324.477 128.306 324.274C128.511 324.225 128.726 324.24 128.922 324.319C129.117 324.397 129.284 324.535 129.398 324.712C129.601 325.066 129.667 325.482 129.582 325.881C129.373 326.691 128.887 327.403 128.21 327.894C127.532 328.385 126.705 328.624 125.869 328.571C125.047 328.501 124.263 328.188 123.619 327.672C122.974 327.156 122.497 326.461 122.249 325.673C122.185 325.475 122.166 325.266 122.192 325.06C122.219 324.854 122.291 324.657 122.403 324.482C122.532 324.314 122.711 324.192 122.914 324.132C123.117 324.073 123.334 324.08 123.533 324.151C124.105 324.398 124.603 324.79 124.978 325.289C125.545 325.939 125.99 326.687 126.292 327.495C126.428 327.781 126.502 328.093 126.507 328.41C126.046 327.371 125.434 326.405 124.693 325.542C124.348 325.121 123.905 324.791 123.402 324.582C123.294 324.543 123.176 324.539 123.066 324.57C122.955 324.602 122.858 324.668 122.787 324.758C122.727 324.876 122.691 325.005 122.682 325.137C122.672 325.269 122.69 325.402 122.733 325.527C122.968 326.2 123.391 326.791 123.953 327.23C124.514 327.669 125.19 327.937 125.9 328.002C126.607 328.053 127.31 327.859 127.89 327.451C128.47 327.043 128.891 326.448 129.082 325.765C129.151 325.49 129.121 325.199 128.998 324.943C128.937 324.843 128.846 324.766 128.738 324.721C128.631 324.677 128.511 324.668 128.398 324.697C127.889 324.867 127.445 325.192 127.13 325.627C126.418 326.529 125.869 327.549 125.508 328.64V328.64Z" fill="#263238"/>
<path d="M156.762 101.569C155.317 100.416 153.626 99.6091 152.15 98.5329C150.674 97.4568 149.26 94.6204 148.914 92.7987L137.053 93.8364C135.795 98.5209 135.276 103.373 135.516 108.218C135.616 110.278 135.916 112.477 137.299 114.006C138.837 115.69 141.227 116.135 143.449 116.497L154.271 118.226C155.547 118.426 156.923 118.618 158.115 118.057C159.219 117.42 160.042 116.391 160.421 115.175C161.287 112.806 161.401 110.228 160.746 107.792C160.091 105.357 158.699 103.184 156.762 101.569V101.569Z" fill="#263238"/>
<path d="M112.925 112.184C112.295 108.672 112.971 105.097 113.294 101.585C113.77 96.4652 113.494 91.1768 113.294 85.9345C113.094 80.6923 112.894 75.3962 113.578 70.346C114.262 65.2959 115.884 60.4841 118.628 57.7707C121.372 55.0573 125.323 54.8959 128.06 58.2319L126.984 71.5452C128.568 90.4324 128.763 109.41 127.568 128.326C123.952 129.036 120.236 129.072 116.607 128.434C116.167 128.404 115.744 128.248 115.39 127.985C115.036 127.722 114.765 127.363 114.608 126.95C114.162 125.659 114.777 124.252 115.016 122.9C115.234 121.05 115.037 119.175 114.439 117.411C113.839 115.698 113.334 113.953 112.925 112.184V112.184Z" fill="#263238"/>
<path d="M122.994 59.3542C124.066 58.2812 125.386 57.4892 126.838 57.0482C127.413 56.8346 128.038 56.7945 128.636 56.9329C128.932 57.0123 129.192 57.189 129.375 57.4345C129.557 57.6799 129.652 57.9798 129.643 58.2857L126.092 63.3128C125.704 63.5961 125.241 63.7589 124.762 63.7808C124.282 63.8026 123.806 63.6826 123.394 63.4358C123.046 63.2993 122.734 63.087 122.478 62.8144C122.223 62.5418 122.032 62.2158 121.918 61.86C121.879 61.3862 121.956 60.9099 122.144 60.473C122.332 60.0361 122.624 59.6519 122.994 59.3542V59.3542Z" fill="#455A64"/>
<path d="M149.59 73.8896C149.291 70.3316 147.652 67.0197 145.006 64.6228C142.359 62.2259 138.902 60.9226 135.332 60.9761C133.488 60.9994 131.667 61.395 129.98 62.1392C128.293 62.8835 126.773 63.9609 125.512 65.3069C124.252 66.653 123.276 68.2398 122.644 69.9722C122.012 71.7047 121.736 73.5469 121.834 75.3885L124.463 106.135C124.512 106.73 124.761 107.291 125.17 107.726C127.435 110.112 130.545 111.514 133.833 111.631C136.666 111.551 139.398 110.556 141.619 108.795C141.983 108.514 142.267 108.143 142.441 107.717C142.615 107.292 142.674 106.829 142.611 106.373L141.65 98.4484C142.336 98.3591 143.016 98.2308 143.687 98.0641C145.424 97.3569 149.644 96.0348 149.836 89.0707C150.03 84.0097 149.948 78.9418 149.59 73.8896V73.8896Z" fill="#A57E6D"/>
<path d="M140.989 85.3196C141.614 85.0736 142.267 84.9058 142.934 84.8199C143.241 84.7661 143.533 84.6816 143.572 84.474C143.569 84.155 143.47 83.8442 143.287 83.5824C142.941 82.8675 142.572 82.1142 142.18 81.3302C140.643 78.1249 139.505 75.473 139.636 75.4192C139.767 75.3654 141.119 77.9096 142.664 81.115C143.033 81.8836 143.387 82.6523 143.733 83.421C143.954 83.7737 144.043 84.1926 143.987 84.6047C143.95 84.7166 143.887 84.8184 143.805 84.9024C143.722 84.9863 143.621 85.0502 143.51 85.089C143.344 85.1481 143.171 85.1868 142.995 85.2043C142.333 85.324 141.66 85.3627 140.989 85.3196V85.3196Z" fill="#263238"/>
<path d="M147.284 78.2402C147.31 78.5316 147.219 78.8212 147.032 79.0459C146.845 79.2706 146.576 79.412 146.285 79.4393C146.143 79.4623 145.999 79.457 145.859 79.4238C145.72 79.3905 145.589 79.3299 145.473 79.2456C145.357 79.1613 145.259 79.0548 145.185 78.9324C145.11 78.8099 145.061 78.674 145.04 78.5323C145.016 78.2406 145.107 77.9511 145.294 77.7257C145.48 77.5002 145.748 77.3566 146.039 77.3255C146.181 77.3037 146.325 77.31 146.465 77.3442C146.604 77.3784 146.735 77.4397 146.851 77.5246C146.967 77.6096 147.065 77.7165 147.139 77.8393C147.213 77.9621 147.263 78.0984 147.284 78.2402V78.2402Z" fill="#263238"/>
<path d="M147.768 76.0341C147.661 76.2263 146.685 75.596 145.462 75.7805C144.24 75.9649 143.495 76.8258 143.333 76.6644C143.172 76.503 143.333 76.257 143.672 75.8958C144.091 75.3916 144.683 75.0603 145.332 74.9657C145.985 74.8742 146.649 75.0245 147.2 75.3884C147.645 75.6421 147.822 75.9419 147.768 76.0341Z" fill="#263238"/>
<path d="M135.877 79.3087C135.903 79.6 135.812 79.8897 135.625 80.1143C135.438 80.339 135.169 80.4805 134.878 80.5078C134.736 80.5307 134.591 80.5251 134.451 80.4913C134.311 80.4576 134.18 80.3964 134.064 80.3113C133.948 80.2261 133.85 80.1188 133.776 79.9955C133.702 79.8722 133.653 79.7354 133.633 79.5931C133.607 79.3017 133.698 79.0121 133.885 78.7874C134.072 78.5627 134.341 78.4213 134.632 78.3939C134.774 78.3721 134.919 78.3784 135.058 78.4126C135.197 78.4468 135.329 78.5081 135.444 78.5931C135.56 78.678 135.658 78.7849 135.732 78.9077C135.806 79.0305 135.856 79.1668 135.877 79.3087V79.3087Z" fill="#263238"/>
<path d="M136.039 77.2102C135.893 77.3947 134.939 76.6337 133.625 76.6568C132.311 76.6798 131.365 77.4254 131.219 77.2486C131.073 77.0719 131.288 76.8413 131.696 76.48C132.238 76.0344 132.916 75.7876 133.617 75.7805C134.318 75.7771 134.999 76.013 135.547 76.4492C135.962 76.8105 136.108 77.1333 136.039 77.2102Z" fill="#263238"/>
<path d="M141.65 98.4484C141.65 98.4484 136.884 99.2171 130.735 96.2039C130.735 96.2039 133.172 102.123 141.919 100.647L141.65 98.4484Z" fill="#755246"/>
<path d="M140.712 88.2329C140.454 87.9654 140.133 87.7658 139.779 87.6518C139.425 87.5379 139.049 87.513 138.683 87.5795C138.418 87.6242 138.164 87.7214 137.937 87.8653C137.71 88.0091 137.514 88.1968 137.361 88.4173C137.213 88.6263 137.133 88.8761 137.133 89.1322C137.133 89.3883 137.213 89.638 137.361 89.847C137.578 90.0436 137.846 90.174 138.135 90.223C138.424 90.2721 138.72 90.2376 138.99 90.1238C139.546 89.8817 140.047 89.5316 140.466 89.0938C140.596 88.989 140.705 88.8614 140.789 88.7171C140.832 88.6508 140.855 88.5734 140.855 88.4942C140.855 88.415 140.832 88.3375 140.789 88.2713" fill="#755246"/>
<path d="M136.684 72.7135C136.592 73.0441 135.37 73.0056 133.963 73.3054C132.557 73.6052 131.442 74.0741 131.227 73.8204C131.127 73.6897 131.296 73.3669 131.726 73.0517C132.308 72.6 132.987 72.2919 133.71 72.1524C134.431 72.0014 135.178 72.0172 135.893 72.1985C136.431 72.3138 136.723 72.5521 136.684 72.7135Z" fill="#263238"/>
<path d="M147.461 73.413C147.223 73.6974 146.216 73.4591 145.009 73.4975C143.802 73.536 142.811 73.7819 142.557 73.4975C142.449 73.3592 142.595 73.0825 143.026 72.8057C143.622 72.4736 144.296 72.3039 144.978 72.3138C145.668 72.2885 146.351 72.4449 146.961 72.7673C147.415 72.9979 147.569 73.2746 147.461 73.413Z" fill="#263238"/>
<path d="M136.154 59.2926C135.728 58.8348 135.204 58.4794 134.621 58.2531C134.037 58.0268 133.411 57.9355 132.787 57.9859C127.33 57.9859 121.842 62.0368 119.505 66.9716C117.168 71.9064 117.967 78.6322 120.896 83.2442L122.948 83.3057C127.084 82.4448 132.403 69.808 137.315 62.5518C137.93 61.6294 136.838 60.1382 136.154 59.2926Z" fill="#263238"/>
<path d="M146.884 61.3065C144.279 59.0851 140.197 56.5177 135.823 58.9621C135.331 60.361 136.953 61.8446 138.245 62.6593C140.136 63.8585 141.742 64.6118 142.995 65.488C145.532 67.2483 148.798 70.2922 149.575 74.0894C149.629 74.3277 149.682 81.8144 149.913 81.7376C150.144 81.6607 150.843 72.5136 150.912 70.369C151.051 65.8262 149.49 63.5202 146.884 61.3065Z" fill="#263238"/>
<path d="M123.924 80.6769C123.786 80.6308 118.544 79.3932 119.013 84.6278C119.481 89.8624 124.624 88.3405 124.616 88.1867C124.608 88.033 123.924 80.6769 123.924 80.6769Z" fill="#A57E6D"/>
<path d="M122.848 86.3419C122.848 86.3419 122.764 86.4111 122.618 86.4956C122.514 86.5523 122.4 86.5876 122.283 86.5995C122.165 86.6113 122.046 86.5996 121.934 86.5648C121.578 86.3797 121.279 86.1035 121.065 85.7645C120.852 85.4255 120.732 85.0358 120.719 84.6355C120.667 84.1869 120.717 83.7324 120.865 83.3057C120.9 83.1361 120.976 82.9775 121.085 82.8436C121.195 82.7097 121.336 82.6045 121.495 82.537C121.597 82.5013 121.709 82.5025 121.81 82.5405C121.911 82.5784 121.996 82.6506 122.049 82.7446C122.133 82.8829 122.11 82.9905 122.141 82.9982C122.172 83.0059 122.241 82.8983 122.18 82.6907C122.142 82.5621 122.06 82.4506 121.949 82.3756C121.873 82.3281 121.788 82.2962 121.7 82.2816C121.611 82.2671 121.521 82.2703 121.434 82.291C121.223 82.3522 121.031 82.4662 120.876 82.6222C120.722 82.7782 120.609 82.9711 120.55 83.1827C120.366 83.6542 120.3 84.1634 120.358 84.6662C120.372 85.1359 120.526 85.5906 120.8 85.9725C121.074 86.3544 121.455 86.6462 121.895 86.8108C122.039 86.8414 122.188 86.8387 122.33 86.8027C122.473 86.7667 122.606 86.6985 122.718 86.6032C122.848 86.4649 122.871 86.3496 122.848 86.3419Z" fill="#755246"/>
<path d="M148.053 62.2136C147.576 62.4106 147.074 62.5425 146.562 62.6056C144.107 63.0309 141.598 63.0309 139.144 62.6056C138.631 62.5544 138.129 62.4274 137.653 62.2289C138.168 62.242 138.682 62.2934 139.19 62.3827C140.41 62.5171 141.637 62.5838 142.864 62.5825C144.093 62.5715 145.32 62.4894 146.539 62.3366C147.039 62.2519 147.545 62.2108 148.053 62.2136V62.2136Z" fill="#455A64"/>
<path d="M150.313 65.7187C149.978 65.9302 149.604 66.0715 149.214 66.1337C147.351 66.5818 145.394 66.4063 143.641 65.6341C143.268 65.5038 142.926 65.2999 142.634 65.0345C143.85 65.5123 145.12 65.8401 146.416 66.0108C147.722 66.0739 149.031 65.9758 150.313 65.7187V65.7187Z" fill="#455A64"/>
<path d="M119.066 68.8317C119.066 68.7626 120.212 68.8317 122.026 68.5396C123.085 68.3738 124.13 68.1324 125.154 67.8171C126.402 67.4118 127.622 66.9239 128.805 66.3566C129.982 65.7728 131.121 65.1182 132.218 64.3965C133.109 63.7962 133.966 63.1469 134.786 62.4518C136.177 61.2681 136.938 60.4072 136.976 60.4533C136.831 60.6774 136.664 60.886 136.477 61.0759C136.276 61.3172 136.063 61.5481 135.839 61.7677C135.577 62.0291 135.285 62.3288 134.932 62.6286C134.128 63.3544 133.278 64.0271 132.387 64.6425C131.289 65.3887 130.141 66.059 128.951 66.6487C127.752 67.2241 126.511 67.7097 125.239 68.1015C124.197 68.4086 123.133 68.6322 122.057 68.7702C121.644 68.8289 121.228 68.8648 120.811 68.8779C120.497 68.9002 120.181 68.9002 119.866 68.8779C119.598 68.893 119.33 68.8775 119.066 68.8317V68.8317Z" fill="#455A64"/>
<path d="M136.869 62.3212C136.783 62.5875 136.673 62.8449 136.538 63.0899C136.408 63.3935 136.259 63.6888 136.092 63.9739C135.9 64.3044 135.708 64.7041 135.431 65.1038C134.829 66.0684 134.15 66.9834 133.402 67.8402C132.481 68.885 131.467 69.8445 130.373 70.7074C129.266 71.5575 128.082 72.3037 126.838 72.9365C125.817 73.4408 124.758 73.8624 123.671 74.1971C123.217 74.3508 122.779 74.4354 122.41 74.5353C122.041 74.6352 121.711 74.6813 121.442 74.7275C121.166 74.7842 120.885 74.8176 120.604 74.8274C120.604 74.7582 121.78 74.5814 123.602 73.9742C124.657 73.6139 125.684 73.1772 126.676 72.6674C129.125 71.4043 131.319 69.7001 133.148 67.6404C133.898 66.8041 134.586 65.9153 135.208 64.9808C136.308 63.3743 136.807 62.3212 136.869 62.3212Z" fill="#455A64"/>
<path d="M132.787 57.9859C133.127 57.8722 133.49 57.851 133.84 57.9244C134.696 58.057 135.495 58.4302 136.146 59.0006C136.333 59.1653 136.503 59.3482 136.654 59.5463C136.789 59.7325 136.903 59.9337 136.992 60.1459C137.163 60.4877 137.307 60.8424 137.422 61.2066C137.564 61.5403 137.583 61.9133 137.476 62.2597C137.422 62.2597 137.438 61.86 137.207 61.2835C137.064 60.9421 136.902 60.6085 136.723 60.2842C136.635 60.0911 136.527 59.9082 136.4 59.7385C136.258 59.5615 136.101 59.397 135.931 59.2465C135.319 58.7132 134.585 58.3384 133.794 58.155C133.187 58.0167 132.795 58.0397 132.787 57.9859Z" fill="#455A64"/>
<path d="M119.704 81.2688C119.693 81.1758 119.667 81.0851 119.628 80.9998C119.574 80.823 119.482 80.577 119.382 80.2311C119.068 79.3126 118.811 78.3756 118.613 77.4255C118.33 76.019 118.198 74.5862 118.221 73.1517C118.243 71.3973 118.538 69.6571 119.097 67.994C119.397 67.1395 119.783 66.3179 120.25 65.5419C120.702 64.8238 121.216 64.1472 121.788 63.5204C122.752 62.4598 123.844 61.5226 125.039 60.7301C125.842 60.1901 126.676 59.6973 127.537 59.2543L128.244 58.893C128.33 58.8578 128.41 58.8112 128.483 58.7546L128.229 58.8469C128.06 58.9237 127.806 59.016 127.499 59.1697C126.616 59.5803 125.763 60.053 124.947 60.5841C123.725 61.3677 122.606 62.3027 121.618 63.3666C121.045 64.0029 120.53 64.6898 120.081 65.419C119.598 66.2068 119.201 67.0444 118.897 67.9171C118.33 69.6044 118.037 71.3716 118.029 73.1517C118.017 74.5987 118.166 76.0424 118.475 77.4562C118.676 78.4103 118.949 79.3481 119.289 80.2618C119.405 80.5924 119.52 80.8307 119.581 81.0305C119.616 81.113 119.657 81.1926 119.704 81.2688V81.2688Z" fill="#455A64"/>
<path d="M141.396 89.6241C141.396 89.4627 140.205 89.2936 138.829 88.6786C137.453 88.0637 136.477 87.1413 136.4 87.2874C136.941 88.1526 137.751 88.8167 138.706 89.1783C140.128 89.824 141.389 89.7548 141.396 89.6241Z" fill="#263238"/>
<path d="M149.644 103.429L142.126 102.538L124.347 104.836L115.269 109.894L131.042 116.543L142.518 114.191L149.644 103.429Z" fill="#A57E6D"/>
<path d="M119.904 106.904L107.314 112.038L110.135 136.213C110.135 136.213 114.816 134.537 117.329 146.751C119.843 158.965 119.881 166.783 119.881 166.783L165.678 165.153C165.678 165.153 164.01 135.875 163.173 129.349L160.098 104.421L148.284 102.445C148.284 102.445 136.9 121.677 119.904 106.904Z" fill="#455A64"/>
<path d="M160.106 104.421C160.106 104.421 165.686 104.021 170.098 111.739C173.45 117.611 174.633 119.879 174.633 119.879L161.658 127.458L156.47 113.291L160.106 104.421Z" fill="#455A64"/>
<path d="M107.467 111.954C107.467 111.954 102.448 114.798 99.7808 118.48C97.1135 122.162 93.9236 128.918 93.9236 128.918L109.297 137.466L111.603 133.077L107.467 111.954Z" fill="#455A64"/>
<path d="M111.764 132.646C111.695 132.646 112.095 131.593 112.448 129.864C112.661 128.85 112.797 127.823 112.856 126.789C112.927 125.528 112.896 124.263 112.764 123.007C112.602 121.754 112.345 120.516 111.995 119.302C111.703 118.312 111.341 117.343 110.911 116.404C110.142 114.806 109.558 113.891 109.62 113.852C109.806 114.032 109.966 114.236 110.096 114.46C110.497 115.04 110.854 115.649 111.165 116.281C111.638 117.218 112.034 118.193 112.348 119.195C112.715 120.428 112.972 121.691 113.117 122.969C113.258 124.245 113.281 125.532 113.186 126.812C113.107 127.849 112.94 128.878 112.687 129.887C112.527 130.573 112.316 131.246 112.056 131.901C111.999 132.163 111.901 132.415 111.764 132.646V132.646Z" fill="#263238"/>
<path d="M160.982 116.128C160.859 116.128 160.451 113.729 159.229 111.001C158.436 109.374 157.561 107.789 156.608 106.25C157.021 106.599 157.379 107.008 157.669 107.465C159.189 109.578 160.254 111.983 160.797 114.529C160.947 115.048 161.01 115.588 160.982 116.128V116.128Z" fill="#263238"/>
<path d="M151.896 102.484C151.874 102.62 151.832 102.752 151.773 102.876C151.666 103.122 151.543 103.498 151.312 103.952C150.689 105.253 149.915 106.476 149.006 107.595C147.673 109.272 146.082 110.728 144.294 111.908C141.188 113.94 137.576 115.064 133.865 115.153C130.155 115.241 126.493 114.29 123.294 112.407C122.048 111.686 120.889 110.822 119.843 109.832C119.466 109.494 119.213 109.187 119.028 108.994C118.844 108.802 118.759 108.687 118.774 108.679C118.79 108.672 119.19 109.056 119.951 109.717C121.022 110.651 122.19 111.471 123.433 112.161C125.272 113.19 127.257 113.931 129.321 114.36C131.841 114.91 134.447 114.949 136.983 114.475C139.519 114.001 141.935 113.024 144.087 111.6C145.855 110.453 147.439 109.043 148.783 107.419C149.693 106.326 150.487 105.141 151.151 103.883C151.635 102.991 151.896 102.476 151.896 102.484Z" fill="#263238"/>
<path d="M130.374 130.571C127.787 122.373 126.076 113.925 125.27 105.366C124.755 99.3324 123.179 94.4667 122.964 88.525L119.528 94.6051C117.727 102.25 116.471 110.012 115.769 117.834C115.546 120.286 115.462 123.023 117.06 124.898C118.344 126.435 120.558 127.135 121.265 128.98C122.034 130.978 120.911 133.93 122.802 134.929C123.294 135.129 123.837 135.168 124.352 135.039C124.868 134.911 125.329 134.622 125.669 134.214C126.327 133.384 126.799 132.422 127.053 131.393C127.23 132.931 129.028 134.56 130.197 133.523C130.935 132.823 130.689 131.57 130.374 130.571Z" fill="#263238"/>
<path d="M38.3414 200.75C38.9982 202.346 39.9802 203.788 41.2249 204.984C42.4696 206.179 43.9497 207.103 45.5709 207.695C47.1922 208.287 48.919 208.535 50.6413 208.423C52.3637 208.312 54.0439 207.842 55.5749 207.045L226.872 117.711L248.748 86.0114L211.137 91.7533L43.7759 185.177C41.1215 186.658 39.1023 189.061 38.1008 191.931C37.0993 194.801 37.1849 197.939 38.3414 200.75V200.75Z" fill="#CE492D"/>
<path d="M43.7759 185.177C41.1215 186.658 39.1023 189.061 38.1008 191.931C37.0993 194.801 37.1849 197.939 38.3414 200.75V200.75C38.9982 202.346 39.9802 203.788 41.2249 204.984C42.4696 206.179 43.9497 207.103 45.5709 207.695C47.1922 208.287 48.919 208.535 50.6413 208.423C52.3637 208.312 54.0439 207.842 55.5749 207.045L43.7759 185.177Z" fill="#263238"/>
<g opacity="0.4">
<path d="M211.129 91.7533L43.7759 185.177L45.7898 188.912L213.804 96.7419L211.129 91.7533Z" fill="black"/>
</g>
<g opacity="0.4">
<path d="M223.928 112.661L53.6379 203.456L55.575 207.045L226.872 117.711L223.928 112.661Z" fill="black"/>
</g>
<g opacity="0.4">
<path d="M217.164 101.807L48.634 194.17L51.3167 199.151L220.031 106.95L217.164 101.807Z" fill="black"/>
</g>
<g opacity="0.4">
<path d="M226.872 117.711L211.129 91.7533L234.151 88.2405L241.23 96.8957L226.872 117.711Z" fill="white"/>
</g>
<path d="M196.609 133.807L199.684 130.563C199.684 130.563 199.323 123.176 200.583 121.339L201.237 120.248C201.237 120.248 200.583 116.658 202.513 115.828C203.058 114.467 203.766 113.914 204.726 114.675C204.726 114.675 204.188 111.969 206.71 111.6C209.231 111.231 209.953 122.684 209.953 122.684C209.953 122.684 211.214 127.819 208.331 127.819C208.331 127.819 206.71 129.618 204.903 129.802C204.903 129.802 204.365 132.877 201.829 132.685L196.609 133.807Z" fill="#A57E6D"/>
<path d="M204.519 128.48C204.519 128.48 204.665 128.572 204.803 128.849C204.986 129.245 205.038 129.69 204.949 130.117C204.831 130.755 204.497 131.333 204.004 131.755C203.413 132.253 202.728 132.627 201.99 132.854C200.696 133.302 199.345 133.561 197.977 133.622C197.413 133.691 196.84 133.66 196.286 133.53C198.179 133.378 200.048 133.014 201.859 132.446C202.549 132.235 203.193 131.896 203.758 131.447C204.21 131.086 204.531 130.586 204.673 130.025C204.782 129.507 204.728 128.967 204.519 128.48V128.48Z" fill="#755246"/>
<path d="M206.756 124.414C206.633 124.414 206.625 122.108 206.079 119.356C205.533 116.604 204.673 114.467 204.788 114.421C205.081 114.834 205.307 115.29 205.457 115.774C205.898 116.91 206.237 118.083 206.471 119.279C206.703 120.476 206.834 121.689 206.863 122.907C206.909 123.412 206.873 123.921 206.756 124.414V124.414Z" fill="#755246"/>
<path d="M204.58 125.674C204.465 125.674 204.25 123.438 203.673 120.732C203.097 118.026 202.397 115.874 202.505 115.836C203.25 117.356 203.768 118.977 204.042 120.647C204.464 122.288 204.645 123.982 204.58 125.674V125.674Z" fill="#755246"/>
<path d="M208.608 125.59C208.7 125.528 209.077 126.236 208.831 127.127C208.585 128.019 207.909 128.449 207.863 128.349C207.816 128.249 208.255 127.781 208.447 127.027C208.639 126.274 208.501 125.628 208.608 125.59Z" fill="#755246"/>
<path d="M201.567 126.12C201.4 125.195 201.321 124.255 201.329 123.315C201.208 122.382 201.17 121.441 201.214 120.501C201.562 121.39 201.737 122.337 201.729 123.292C201.849 124.236 201.794 125.195 201.567 126.12V126.12Z" fill="#755246"/>
<path d="M94.6767 128.918C94.6767 128.918 84.5073 150.356 82.97 153.554C81.4327 156.752 78.9499 162.663 82.97 165.976C86.9901 169.288 115 169.496 115 169.496L116.391 158.204L97.9436 153.738L108.782 137.466L94.6767 128.918Z" fill="#A57E6D"/>
<path d="M118.844 158.404C119.409 157.173 120.238 156.081 121.273 155.207C123.033 153.669 126.907 152.485 127.422 151.017C127.937 149.549 129.39 150.695 129.044 152.516C128.829 153.685 126.43 156.736 126.43 156.736C126.43 156.736 129.244 157.436 131.119 156.36C132.995 155.283 139.575 153.339 140.251 154.261C140.927 155.184 139.321 155.637 138.591 156.06C138.03 156.375 133.671 158.535 133.671 158.535C133.671 158.535 142.342 158.243 143.433 158.658C144.525 159.073 143.433 160.149 142.857 160.195C142.519 160.195 141.027 161.54 139.974 162.501C139.261 163.17 138.323 163.549 137.345 163.562H135.332L141.481 164.208C141.481 164.208 142.534 165.176 141.066 165.683C140.405 165.906 121.849 168.581 120.404 168.666C117.914 168.812 113.978 169.435 113.978 169.435L114.977 157.905L118.844 158.404Z" fill="#A57E6D"/>
<path d="M142.98 160.241C141.674 160.88 140.271 161.298 138.829 161.479C137.417 161.794 135.964 161.879 134.524 161.732C134.524 161.617 136.438 161.502 138.76 161.087C141.081 160.672 142.941 160.134 142.98 160.241Z" fill="#755246"/>
<path d="M162.711 81.4303L167.538 72.9135C164.549 68.061 163.483 62.2658 164.549 56.667C165.616 51.0682 168.738 46.0709 173.302 42.6572C177.866 39.2436 183.542 37.6607 189.214 38.2196C194.886 38.7785 200.144 41.4388 203.954 45.6775C207.764 49.9163 209.85 55.4269 209.804 61.1262C209.757 66.8255 207.58 72.3011 203.701 76.4768C199.822 80.6524 194.521 83.2261 188.841 83.6918C183.16 84.1576 177.511 82.4817 173.004 78.9936V78.9936L162.711 81.4303Z" fill="white"/>
<path d="M162.711 81.4302L173.034 79.1242H173.173L173.088 79.0089L172.957 79.1319C176.134 81.6094 179.911 83.2007 183.903 83.7439C185.1 83.9109 186.309 83.9727 187.516 83.9284C188.139 83.9284 188.769 83.8823 189.415 83.8285L191.336 83.5364C194.402 82.9497 197.316 81.7415 199.898 79.9864C202.48 78.2312 204.675 75.9661 206.348 73.3307C208.022 70.6952 209.138 67.7451 209.629 64.6619C210.119 61.5788 209.973 58.4279 209.2 55.4033C208.342 51.9259 206.663 48.7049 204.304 46.0102C201.914 43.2464 198.9 41.0934 195.51 39.7302C192.258 38.4448 188.759 37.9063 185.271 38.1545C181.974 38.38 178.767 39.3301 175.878 40.937C170.693 43.8307 166.816 48.6045 165.048 54.2733C164.34 56.6833 164.006 59.1874 164.056 61.6986C164.178 65.706 165.358 69.6099 167.477 73.0134V72.9211L162.727 81.484L167.631 73.0287V72.9826V72.9365C165.563 69.5475 164.42 65.6751 164.318 61.7063C164.282 59.2247 164.625 56.7521 165.332 54.3733C167.074 48.7642 170.904 44.0391 176.032 41.1753C178.872 39.6079 182.02 38.6817 185.256 38.4619C188.688 38.212 192.132 38.7374 195.333 39.9992C198.666 41.3326 201.633 43.4405 203.988 46.1486C206.307 48.7955 207.959 51.9579 208.808 55.3725C209.63 58.6431 209.724 62.0541 209.085 65.3652C208.468 68.3939 207.24 71.265 205.476 73.8026C203.711 76.3403 201.448 78.4911 198.823 80.1235C196.497 81.5715 193.93 82.5896 191.244 83.129L189.345 83.4211C188.715 83.4749 188.085 83.4902 187.47 83.5287C186.278 83.5818 185.084 83.5252 183.903 83.3596C179.947 82.8419 176.197 81.288 173.034 78.8552L172.466 78.4171L172.904 78.9782L172.957 78.8321L162.711 81.4302Z" fill="#263238"/>
<path d="M175.532 62.3289L178.722 59.1389L184.872 64.6041L196.947 52.9896L199.907 56.1719L184.418 70.7534L175.532 62.3289Z" fill="#CE492D"/>
</svg>
