<svg width="301" height="283" viewBox="0 0 301 283" fill="none" xmlns="http://www.w3.org/2000/svg">
<path d="M49.9208 258.585L45.8213 274.244L-3.17006e-05 273.831C-3.17006e-05 273.831 6.27743 269.091 29.2948 269.432L31.5297 258.585H49.9208Z" fill="#FFBE9D"/>
<path d="M99.8702 81.7058L134.247 84.9513L148.211 88.9655C154.178 90.6586 159.639 93.7919 164.111 98.0899L209.107 141.192L217.32 74.1045L239.754 76.0689L235.996 162.416C234.341 167.614 231.075 172.151 226.671 175.37C222.267 178.589 216.953 180.324 211.498 180.323C204.765 180.242 198.313 177.607 193.449 172.95L161.464 142.758L164.638 182.501L175.655 207.198L97.0091 251.61C97.0091 251.61 87.7708 205.889 82.7744 174.259C78.7603 148.637 76.7247 92.9369 76.7247 92.9369L99.8702 81.7058Z" fill="#CE492D"/>
<path d="M78.746 92.1398C78.746 92.1398 61.3655 98.5881 57.152 112.211C53.4226 124.282 40.9815 192.209 40.9815 192.209L28.6401 264.052L54.4902 265.034L84.2548 142.53L78.746 92.1398Z" fill="#CE492D"/>
<path d="M165.236 180.736C165.449 180.736 164.296 166.957 162.673 150.004C161.051 133.05 159.556 119.328 159.357 119.342C159.157 119.356 160.31 133.121 161.933 150.075C163.556 167.028 165.036 180.765 165.236 180.736Z" fill="#263238"/>
<path d="M107.998 146.957C108.044 147.19 108.121 147.415 108.226 147.626L109.009 149.491C109.432 150.465 109.907 151.415 110.432 152.338C111.03 153.448 111.642 154.744 112.511 156.068C112.923 156.737 113.365 157.491 113.806 158.174C114.247 158.858 114.817 159.598 115.343 160.381C116.382 161.918 117.663 163.441 118.987 165.064C124.863 172.009 132.038 177.739 140.112 181.932C141.99 182.857 143.756 183.768 145.492 184.423C146.361 184.765 147.172 185.135 147.983 185.419L150.346 186.202C151.77 186.743 153.193 187.056 154.432 187.384C155.466 187.672 156.517 187.9 157.577 188.067L159.57 188.409C159.803 188.467 160.043 188.491 160.282 188.48C160.066 188.375 159.836 188.304 159.599 188.266L157.634 187.797C156.78 187.612 155.727 187.355 154.545 186.985C153.364 186.615 151.969 186.288 150.503 185.718L148.197 184.879C147.385 184.594 146.588 184.21 145.734 183.854C144.012 183.17 142.275 182.259 140.425 181.334C136.467 179.209 132.7 176.747 129.165 173.975C125.67 171.154 122.418 168.044 119.443 164.68C118.133 163.085 116.838 161.591 115.785 160.068C115.258 159.327 114.703 158.644 114.233 157.918L112.895 155.84C112.012 154.545 111.372 153.278 110.745 152.196C110.223 151.272 109.748 150.321 109.322 149.349L108.411 147.541C108.14 147.157 108.027 146.943 107.998 146.957Z" fill="#263238"/>
<g opacity="0.2">
<path d="M156.111 187.711C157.328 187.237 158.326 186.328 158.913 185.161C159.499 183.994 159.632 182.651 159.286 181.391C158.884 180.146 158.219 179.003 157.334 178.04C156.45 177.077 155.367 176.317 154.161 175.811C151.752 174.806 149.242 174.061 146.674 173.59C135.621 170.869 125.515 165.196 117.436 157.178C116.681 156.438 115.628 155.626 114.703 156.125C113.464 156.808 114.247 158.687 115.158 159.769C126.291 172.701 140.718 182.377 156.908 187.768" fill="black"/>
</g>
<path d="M77.593 171.526C77.8208 171.073 77.9974 170.595 78.1197 170.103C78.4044 169.149 78.8029 167.754 79.2584 166.032C80.1979 162.601 81.3936 157.818 82.5751 152.523C83.7566 147.228 84.7388 142.388 85.422 138.886C85.7352 137.121 85.9772 135.712 86.1195 134.716C86.2366 134.212 86.2844 133.695 86.2619 133.178C86.0651 133.635 85.9218 134.112 85.8348 134.602C85.5786 135.74 85.2655 137.107 84.8954 138.716C84.0982 142.374 83.0591 147.085 81.9061 152.295C80.7531 157.505 79.6285 162.26 78.8029 165.847C78.4328 167.469 78.1339 168.836 77.8777 169.975C77.7143 170.477 77.6186 170.999 77.593 171.526Z" fill="#263238"/>
<path d="M235.825 82.5172C236.276 81.4454 236.499 80.2918 236.48 79.1294C236.701 77.9836 236.671 76.8038 236.395 75.6703C235.944 76.7421 235.721 77.8958 235.74 79.0582C235.519 80.2039 235.548 81.3838 235.825 82.5172V82.5172Z" fill="#263238"/>
<path d="M229.249 82.7165C229.665 81.5631 229.853 80.3402 229.804 79.1151C229.983 77.9001 229.92 76.6618 229.619 75.4711C229.187 76.6203 228.998 77.8465 229.064 79.0724C228.868 80.2866 228.931 81.5284 229.249 82.7165V82.7165Z" fill="#263238"/>
<path d="M222.672 82.3036C223.115 81.0132 223.317 79.6528 223.27 78.2895C223.465 76.9348 223.417 75.5562 223.128 74.2184C222.695 75.5159 222.492 76.8793 222.53 78.2468C222.334 79.5967 222.382 80.9708 222.672 82.3036V82.3036Z" fill="#263238"/>
<path d="M210.061 151.498C210.234 149.517 210.153 147.523 209.819 145.562C209.74 143.575 209.415 141.605 208.851 139.698C208.677 141.679 208.758 143.673 209.093 145.634C209.171 147.621 209.496 149.591 210.061 151.498V151.498Z" fill="#263238"/>
<path d="M50.234 257.589C49.6745 258.715 49.3362 259.937 49.2376 261.19C48.9129 262.405 48.8211 263.671 48.9671 264.92C49.8875 262.589 50.3187 260.094 50.234 257.589V257.589Z" fill="#263238"/>
<path d="M41.7359 257.575C41.2042 258.589 40.8937 259.705 40.8249 260.849C40.5097 261.95 40.4465 263.108 40.6399 264.237C41.1716 263.222 41.4821 262.106 41.5509 260.963C41.8576 259.86 41.9208 258.704 41.7359 257.575V257.575Z" fill="#263238"/>
<path d="M33.6791 256.763C33.2081 257.942 32.9201 259.185 32.825 260.45C32.4896 261.678 32.3551 262.952 32.4265 264.222C33.0695 263.106 33.4584 261.862 33.5652 260.578C33.8905 259.332 33.9294 258.027 33.6791 256.763V256.763Z" fill="#263238"/>
<path d="M64.796 100.51C64.796 100.652 66.6038 100.51 69.4081 101.122C73.0622 101.864 76.4604 103.544 79.2682 105.997C82.076 108.451 84.1968 111.593 85.422 115.115C86.3758 117.805 86.5181 119.613 86.6604 119.584C86.7319 119.165 86.7319 118.737 86.6604 118.317C86.5304 117.173 86.2921 116.043 85.9487 114.944C84.82 111.26 82.6835 107.966 79.7807 105.433C76.8778 102.9 73.3244 101.229 69.5219 100.609C68.389 100.417 67.2404 100.331 66.0914 100.353C65.6539 100.332 65.216 100.385 64.796 100.51Z" fill="#263238"/>
<path d="M54.1628 129.733C55.5322 130.46 56.9608 131.07 58.4331 131.555C61.1093 132.566 64.8672 133.89 69.0522 135.185C73.2372 136.481 77.0805 137.548 79.8705 138.246C81.3571 138.697 82.8818 139.011 84.4256 139.185C82.9858 138.606 81.5063 138.13 79.9986 137.762L69.28 134.516L58.604 131.086C57.1581 130.529 55.6738 130.077 54.1628 129.733V129.733Z" fill="#FAFAFA"/>
<path d="M43.2021 179.284C44.6531 179.804 46.1429 180.209 47.6575 180.494C50.4333 181.149 54.2766 182.003 58.5186 182.9C62.7605 183.797 66.6323 184.565 69.4365 185.092C70.9342 185.441 72.4575 185.669 73.9916 185.775C72.5448 185.261 71.0598 184.861 69.5504 184.58C66.7035 183.925 62.9313 183.071 58.6751 182.174C54.419 181.277 50.5614 180.494 47.7714 179.982C46.2701 179.624 44.7418 179.391 43.2021 179.284V179.284Z" fill="#FAFAFA"/>
<path d="M30.7753 241.276C32.1902 241.467 33.6187 241.538 35.0456 241.49C37.6791 241.561 41.3231 241.675 45.3231 241.902C49.323 242.13 52.967 242.443 55.5862 242.685C57.0014 242.877 58.4285 242.968 59.8566 242.956C58.4635 242.547 57.0328 242.28 55.5862 242.159C52.9813 241.789 49.3372 241.404 45.3088 241.162C41.2804 240.92 37.6363 240.906 34.9887 240.977C33.5778 240.936 32.1663 241.036 30.7753 241.276V241.276Z" fill="#FAFAFA"/>
<path d="M144.866 183C145.89 182.682 146.877 182.257 147.812 181.733L154.787 178.402L161.777 175.114C162.768 174.729 163.721 174.252 164.624 173.69C163.565 173.895 162.536 174.235 161.563 174.701C159.727 175.427 157.207 176.509 154.446 177.804C151.684 179.099 149.293 180.366 147.556 181.348C146.595 181.786 145.691 182.34 144.866 183V183Z" fill="#FAFAFA"/>
<path d="M87.5715 192.722C88.1528 192.569 88.716 192.355 89.2512 192.081L93.7351 190.131C97.5073 188.48 102.746 186.231 108.582 183.896C114.418 181.562 119.77 179.626 123.642 178.202L128.226 176.523C128.803 176.348 129.361 176.114 129.891 175.825C129.292 175.894 128.704 176.037 128.14 176.252C127.03 176.565 125.436 177.064 123.471 177.676C119.542 178.957 114.162 180.864 108.311 183.199C102.461 185.533 97.2368 187.868 93.5216 189.647C91.6568 190.544 90.148 191.284 89.1373 191.811C88.5833 192.056 88.0581 192.361 87.5715 192.722V192.722Z" fill="#FAFAFA"/>
<path d="M83.173 152.267C83.4406 152.278 83.7086 152.254 83.9701 152.196L86.2476 151.854L94.5891 150.502C101.706 149.363 111.372 147.797 122.147 146.231C132.923 144.666 142.702 143.385 149.791 142.402L158.161 141.292L160.439 140.965C160.711 140.943 160.979 140.885 161.236 140.794C160.966 140.772 160.694 140.772 160.424 140.794L158.133 140.993C156.14 141.164 153.264 141.463 149.72 141.861C142.603 142.659 132.838 143.897 122.048 145.477C111.258 147.057 101.536 148.708 94.5037 149.989C90.9878 150.63 88.1551 151.171 86.1907 151.569L83.9416 152.053C83.6763 152.087 83.4174 152.159 83.173 152.267V152.267Z" fill="#FAFAFA"/>
<path d="M86.3331 109.549C86.3331 109.748 101.763 107.613 120.738 104.78C139.713 101.947 155.058 99.4849 155.029 99.2856C155.001 99.0863 139.599 101.222 120.624 104.054C101.65 106.887 86.3046 109.349 86.3331 109.549Z" fill="#FAFAFA"/>
<path d="M167.015 146.915C167.849 145.424 168.582 143.878 169.207 142.288L174.203 131.015C176.168 126.744 177.933 122.858 179.328 119.798C180.099 118.277 180.769 116.708 181.335 115.1C181.029 115.449 180.78 115.842 180.595 116.267C180.168 117.036 179.57 118.161 178.844 119.57C177.421 122.417 175.513 126.317 173.534 130.716C171.556 135.114 169.876 139.143 168.723 142.103C168.14 143.527 167.698 144.765 167.399 145.605C167.216 146.024 167.087 146.464 167.015 146.915V146.915Z" fill="#FAFAFA"/>
<path d="M197.676 176.921C197.876 176.921 199.84 168.381 202.061 157.719C204.281 147.057 205.918 138.417 205.719 138.374C205.52 138.331 203.555 146.915 201.335 157.562C199.114 168.21 197.477 176.879 197.676 176.921Z" fill="#FAFAFA"/>
<path d="M210.359 130.246C214.743 131.565 219.196 132.644 223.697 133.477C228.148 134.54 232.653 135.362 237.192 135.94C232.807 134.619 228.355 133.536 223.854 132.694C219.402 131.64 214.898 130.822 210.359 130.246V130.246Z" fill="#FAFAFA"/>
<path d="M214.815 91.2858C215.955 91.6695 217.134 91.9273 218.331 92.0544C220.509 92.4245 223.541 92.8658 226.872 93.2501C230.203 93.6345 233.277 93.8765 235.498 94.0046C236.69 94.1322 237.893 94.1322 239.085 94.0046C237.924 93.7052 236.737 93.5192 235.541 93.4494L227 92.4672L218.459 91.4993C217.254 91.3082 216.034 91.2367 214.815 91.2858V91.2858Z" fill="#FAFAFA"/>
<path d="M203.242 23.6711C202.844 24.4683 192.153 79.414 192.153 79.414L217.349 80.5955L227.114 33.3507L203.242 23.6711Z" fill="#455A64"/>
<path d="M192.153 79.4141L189.264 78.2041L200.167 24.0414L203.584 23.8136L192.153 79.4141Z" fill="#263238"/>
<path d="M213.377 35.6852C213.344 35.9439 213.39 36.2065 213.507 36.4394C213.624 36.6722 213.808 36.8648 214.036 36.9923C214.263 37.1199 214.523 37.1767 214.783 37.1554C215.043 37.1341 215.291 37.0356 215.494 36.8727C215.698 36.7098 215.848 36.4899 215.926 36.241C216.004 35.9922 216.006 35.7257 215.931 35.4759C215.857 35.226 215.709 35.004 215.508 34.8385C215.307 34.6729 215.06 34.5712 214.801 34.5464C214.462 34.5141 214.124 34.615 213.858 34.8275C213.593 35.0401 213.42 35.3477 213.377 35.6852V35.6852Z" fill="#263238"/>
<path d="M218.573 74.2469L218.957 67.0584L208.182 62.6172L212.452 52.6529C212.936 51.5533 213.643 50.566 214.528 49.7533C215.413 48.9406 216.457 48.32 217.594 47.9308C218.731 47.5416 219.936 47.3922 221.134 47.492C222.331 47.5918 223.495 47.9386 224.551 48.5106L228.822 50.8594C230.346 51.6805 231.68 52.8135 232.737 54.1845C233.794 55.5555 234.55 57.1338 234.957 58.8165C236.119 64.6246 236.951 70.494 237.448 76.3963" fill="#FFBE9D"/>
<path d="M247.398 257.432C247.398 257.432 291.696 269.689 293.476 270.244C296.137 271.183 295.696 280.962 291.54 280.806C289.575 280.735 257.519 282.001 253.462 281.745C249.405 281.489 237.192 276.678 237.192 276.678L247.398 257.432Z" fill="#CE492D"/>
<path d="M265.846 274.329C266.404 272.708 267.055 271.12 267.796 269.575C268.754 268.144 269.8 266.775 270.928 265.475C269.355 266.341 268.05 267.622 267.154 269.178C266.258 270.734 265.806 272.505 265.846 274.3V274.329Z" fill="#263238"/>
<path d="M261.234 272.236C261.448 272.236 261.903 270.187 263.085 267.866C264.266 265.546 265.647 263.938 265.49 263.781C264.2 264.79 263.149 266.07 262.411 267.532C261.673 268.993 261.266 270.6 261.22 272.236H261.234Z" fill="#263238"/>
<path d="M256.836 271.083C257.043 269.496 257.386 267.929 257.86 266.4C258.551 264.955 259.36 263.569 260.28 262.258C258.876 263.203 257.793 264.555 257.178 266.132C256.562 267.709 256.443 269.437 256.836 271.083V271.083Z" fill="#263238"/>
<path d="M257.69 265.361C258.074 264.305 258.234 263.18 258.159 262.059C258.157 260.84 258.009 259.626 257.718 258.443C257.542 257.745 257.319 257.06 257.049 256.393C256.919 255.976 256.677 255.602 256.352 255.311C256.13 255.142 255.856 255.055 255.577 255.068C255.298 255.082 255.033 255.193 254.828 255.383C254.482 255.713 254.27 256.159 254.231 256.635C254.203 257.024 254.203 257.414 254.231 257.803C254.245 258.536 254.336 259.266 254.501 259.98C254.813 261.167 255.292 262.303 255.925 263.354C256.415 264.363 257.091 265.271 257.917 266.03C258.017 265.959 257.277 264.92 256.394 263.112C255.87 262.069 255.478 260.964 255.227 259.824C255.09 259.159 255.018 258.482 255.014 257.803C255.014 257.119 255.014 256.265 255.426 255.938C255.505 255.864 255.61 255.823 255.718 255.823C255.827 255.823 255.931 255.864 256.01 255.938C256.233 256.149 256.4 256.414 256.494 256.706C256.757 257.347 256.98 258.003 257.163 258.671C257.482 259.799 257.677 260.959 257.747 262.13C257.761 264.052 257.562 265.333 257.69 265.361Z" fill="#263238"/>
<path d="M257.633 264.906C256.732 264.535 255.757 264.379 254.786 264.45C253.725 264.446 252.668 264.575 251.64 264.834C251.009 264.972 250.4 265.197 249.832 265.504C249.468 265.686 249.174 265.982 248.994 266.347C248.814 266.712 248.759 267.125 248.836 267.525C248.936 267.907 249.136 268.255 249.417 268.533C249.697 268.811 250.047 269.008 250.43 269.105C251.083 269.276 251.77 269.276 252.423 269.105C254.393 268.526 256.122 267.322 257.348 265.674C256.525 266.144 255.74 266.677 254.999 267.269C254.173 267.826 253.252 268.227 252.28 268.45C251.738 268.579 251.172 268.579 250.629 268.45C250.371 268.391 250.134 268.262 249.945 268.075C249.757 267.889 249.624 267.654 249.562 267.397C249.517 267.147 249.557 266.889 249.676 266.665C249.795 266.441 249.985 266.262 250.216 266.158C250.724 265.883 251.265 265.672 251.825 265.532C252.797 265.26 253.794 265.083 254.8 265.005C256.522 264.849 257.618 265.02 257.633 264.906Z" fill="#263238"/>
<path d="M272.65 274.813C272.838 273.458 273.133 272.121 273.533 270.813C274.155 269.597 274.879 268.435 275.696 267.34C274.407 268.045 273.4 269.173 272.845 270.535C272.29 271.896 272.221 273.407 272.65 274.813V274.813Z" fill="#263238"/>
<path d="M241.747 276.863C242.292 277.19 242.869 277.462 243.469 277.674C245.076 278.289 246.721 278.798 248.394 279.197C253.945 280.416 259.624 280.956 265.305 280.806C271.939 280.735 277.917 280.421 282.259 280.251L287.397 279.98C288.029 279.978 288.658 279.911 289.276 279.781C288.651 279.68 288.015 279.652 287.383 279.695H282.244L265.305 280.037C259.671 280.163 254.04 279.686 248.508 278.614C244.281 277.802 241.804 276.72 241.747 276.863Z" fill="#263238"/>
<path d="M240.437 277.859C240.437 277.959 241.718 277.261 243.754 276.365C246.36 275.114 249.265 274.621 252.138 274.941C254.953 275.541 257.495 277.04 259.384 279.211C260.173 280.141 261.024 281.016 261.932 281.831C261.351 280.744 260.623 279.743 259.768 278.856C258.893 277.853 257.91 276.951 256.836 276.165C255.484 275.163 253.913 274.499 252.252 274.229C249.248 273.873 246.206 274.45 243.54 275.881C242.409 276.375 241.362 277.042 240.437 277.859Z" fill="#263238"/>
<path d="M200.381 245.205C200.381 245.205 158.474 272.649 156.965 273.788C154.716 275.482 157.293 283.61 161.236 282.201C163.086 281.532 198.246 271.752 202.046 270.286C205.847 268.82 215.996 260.507 215.996 260.507L200.381 245.205Z" fill="#CE492D"/>
<path d="M187.94 266.899C187.43 265.175 186.459 263.624 185.132 262.412C183.805 261.201 182.172 260.375 180.41 260.023C181.893 260.911 183.319 261.89 184.68 262.956C185.849 264.2 186.937 265.517 187.94 266.899V266.899Z" fill="#263238"/>
<path d="M191.698 263.511C191.282 261.91 190.394 260.472 189.15 259.383C188.076 258.13 186.662 257.215 185.079 256.749C184.965 256.948 186.801 258.044 188.609 259.909C190.417 261.774 191.513 263.61 191.698 263.511Z" fill="#263238"/>
<path d="M195.47 261.091C195.347 259.401 194.71 257.79 193.643 256.474C192.577 255.159 191.133 254.201 189.506 253.731C190.776 254.701 191.967 255.772 193.064 256.934C193.977 258.252 194.782 259.643 195.47 261.091V261.091Z" fill="#263238"/>
<path d="M192.993 255.881C193.093 255.881 192.523 254.685 192.04 252.735C191.758 251.597 191.591 250.433 191.541 249.262C191.499 248.574 191.499 247.885 191.541 247.198C191.538 246.889 191.617 246.584 191.769 246.315C191.83 246.226 191.923 246.163 192.028 246.139C192.134 246.115 192.245 246.132 192.338 246.187C192.822 246.372 193.064 247.198 193.292 247.838C193.496 248.487 193.635 249.155 193.705 249.831C193.808 250.994 193.769 252.165 193.591 253.319C193.306 255.312 192.908 256.521 193.022 256.55C193.586 255.582 193.959 254.514 194.118 253.404C194.371 252.207 194.462 250.981 194.388 249.76C194.326 249.032 194.193 248.312 193.99 247.611C193.876 247.255 193.733 246.899 193.577 246.515C193.393 246.077 193.06 245.719 192.637 245.504C192.39 245.401 192.115 245.385 191.857 245.457C191.599 245.529 191.372 245.686 191.214 245.902C190.99 246.277 190.872 246.705 190.872 247.141C190.815 247.861 190.815 248.584 190.872 249.305C190.948 250.518 191.172 251.718 191.541 252.877C191.802 253.972 192.298 254.997 192.993 255.881V255.881Z" fill="#263238"/>
<path d="M192.908 255.425C192.908 255.539 193.947 255.041 195.627 254.628C196.612 254.394 197.618 254.256 198.63 254.215C199.207 254.181 199.785 254.22 200.353 254.329C200.604 254.359 200.839 254.471 201.019 254.649C201.2 254.827 201.316 255.06 201.349 255.311C201.359 255.574 201.3 255.835 201.178 256.067C201.055 256.299 200.874 256.495 200.651 256.635C200.178 256.93 199.641 257.111 199.086 257.162C198.093 257.253 197.093 257.151 196.139 256.863C195.249 256.526 194.336 256.255 193.406 256.052C194.173 256.649 195.048 257.093 195.982 257.361C196.994 257.747 198.077 257.907 199.157 257.831C199.829 257.797 200.481 257.591 201.05 257.233C201.385 257.027 201.658 256.734 201.841 256.386C202.023 256.038 202.109 255.647 202.089 255.255C202.042 254.848 201.863 254.469 201.581 254.174C201.298 253.878 200.927 253.683 200.523 253.618C199.889 253.506 199.243 253.478 198.602 253.532C197.542 253.602 196.495 253.803 195.484 254.13C194.537 254.357 193.655 254.801 192.908 255.425V255.425Z" fill="#263238"/>
<path d="M166.545 280.678C166.545 280.678 167.257 280.251 167.57 279.041C167.912 277.483 167.631 275.853 166.787 274.5C166.361 273.77 165.886 273.071 165.364 272.407C164.959 271.838 164.481 271.326 163.94 270.884C163.561 270.565 163.095 270.366 162.602 270.315C162.246 270.315 162.061 270.386 162.076 270.429C162.641 270.595 163.162 270.887 163.599 271.283C164.051 271.75 164.456 272.26 164.809 272.806C165.236 273.432 165.705 274.115 166.118 274.856C166.865 276.079 167.185 277.516 167.029 278.941C166.897 279.528 166.736 280.107 166.545 280.678V280.678Z" fill="#263238"/>
<path d="M181.591 269.432C181.581 267.963 181.062 266.543 180.123 265.414C179.183 264.285 177.881 263.517 176.438 263.24C176.353 263.454 178.118 264.137 179.556 265.888C180.336 267.008 181.017 268.194 181.591 269.432V269.432Z" fill="#263238"/>
<path d="M211.669 261.987C211.019 262.359 210.4 262.783 209.819 263.254C208.161 264.41 206.435 265.465 204.651 266.414C202.003 267.815 199.264 269.037 196.452 270.073C193.278 271.254 189.719 272.379 185.947 273.461C178.403 275.639 171.584 277.617 166.659 279.154L160.837 280.948C160.113 281.132 159.407 281.385 158.73 281.702C159.468 281.598 160.196 281.437 160.908 281.218L166.801 279.667C171.769 278.315 178.602 276.407 186.161 274.229C189.933 273.147 193.506 271.994 196.694 270.77C199.521 269.677 202.266 268.383 204.908 266.898C206.686 265.896 208.385 264.759 209.989 263.496C210.599 263.052 211.162 262.546 211.669 261.987V261.987Z" fill="#263238"/>
<path d="M213.221 262.628C212.091 262.127 210.891 261.806 209.662 261.674C206.684 261.119 203.606 261.496 200.851 262.756C199.351 263.493 198.048 264.576 197.05 265.916C196.26 267.007 195.601 268.187 195.086 269.432C194.538 270.535 194.145 271.709 193.918 272.92C194.555 271.87 195.125 270.781 195.627 269.66C196.749 267.001 198.715 264.785 201.221 263.354C203.854 262.163 206.77 261.738 209.634 262.13C211.826 262.358 213.192 262.628 213.221 262.628Z" fill="#263238"/>
<path d="M102.162 27.7565L99.4289 83.115C99.3149 85.3493 99.657 87.5834 100.434 89.6813C101.211 91.7791 102.407 93.6968 103.95 95.3176C105.492 96.9383 107.348 98.2281 109.404 99.1085C111.461 99.9889 113.675 100.441 115.913 100.439V100.439C120.143 100.44 124.211 98.8157 127.277 95.9011C130.342 92.9866 132.17 89.0051 132.382 84.7805C132.581 80.6097 132.752 77.1365 132.809 76.7094C132.809 76.7094 146.958 76.0689 148.667 62.1759C149.492 55.4571 150.09 41.4929 150.446 28.8384C150.639 22.2799 148.353 15.8895 144.045 10.9405C139.738 5.9915 133.723 2.84723 127.201 2.13415L125.863 1.9918C111.286 1.23736 102.504 13.1945 102.162 27.7565Z" fill="#FFBE9D"/>
<path d="M132.838 76.4818C126.401 75.9058 120.282 73.4283 115.258 69.3644C115.258 69.3644 118.446 79.8554 132.468 80.1258L132.838 76.4818Z" fill="#EB996E"/>
<path d="M146.005 37.5073C145.951 38.0246 145.698 38.5008 145.299 38.8354C144.901 39.17 144.388 39.3368 143.869 39.3008C143.614 39.2936 143.362 39.2352 143.13 39.1289C142.897 39.0226 142.689 38.8707 142.516 38.6821C142.343 38.4936 142.21 38.2722 142.125 38.0313C142.04 37.7903 142.004 37.5347 142.019 37.2795C142.066 36.7592 142.317 36.2787 142.717 35.9427C143.117 35.6067 143.634 35.4425 144.154 35.4859C144.409 35.495 144.66 35.5548 144.891 35.6617C145.123 35.7687 145.331 35.9206 145.503 36.1088C145.675 36.2969 145.808 36.5175 145.894 36.7576C145.981 36.9977 146.018 37.2525 146.005 37.5073V37.5073Z" fill="#263238"/>
<path d="M146.688 35.3151C146.403 35.5429 145.022 34.2618 142.887 34.034C140.752 33.8063 139.058 34.703 138.859 34.4183C138.66 34.1336 139.058 33.849 139.798 33.4219C140.799 32.894 141.933 32.676 143.058 32.7956C144.173 32.9176 145.22 33.3912 146.047 34.1479C146.645 34.7173 146.816 35.2155 146.688 35.3151Z" fill="#263238"/>
<path d="M125.009 35.6994C124.954 36.2195 124.7 36.6979 124.298 37.0329C123.897 37.3678 123.38 37.5329 122.859 37.493C122.604 37.4839 122.354 37.4242 122.122 37.3173C121.891 37.2103 121.683 37.0584 121.51 36.8702C121.338 36.6821 121.205 36.4615 121.119 36.2214C121.033 35.9813 120.995 35.7265 121.009 35.4717C121.059 34.9529 121.311 34.4746 121.71 34.1393C122.109 33.804 122.624 33.6385 123.144 33.6782C123.4 33.6854 123.652 33.7438 123.885 33.8499C124.119 33.956 124.328 34.1077 124.502 34.2961C124.676 34.4844 124.81 34.7056 124.897 34.9466C124.984 35.1876 125.022 35.4436 125.009 35.6994V35.6994Z" fill="#263238"/>
<path d="M125.621 33.4504C125.336 33.6781 123.955 32.397 121.82 32.1693C119.685 31.9415 117.991 32.8383 117.792 32.5536C117.592 32.2689 117.991 31.9842 118.731 31.5572C119.731 31.0293 120.866 30.8112 121.991 30.9309C123.106 31.0528 124.152 31.5264 124.98 32.2831C125.578 32.7956 125.749 33.2938 125.621 33.4504Z" fill="#263238"/>
<path d="M131.571 50.105C132.739 49.8852 133.928 49.8039 135.115 49.863C135.67 49.863 136.197 49.863 136.325 49.4644C136.432 48.9033 136.367 48.3229 136.14 47.7989C135.77 46.3755 135.386 44.952 134.987 43.4574C133.393 37.2938 132.311 32.2405 132.553 32.1835C132.795 32.1266 134.304 37.066 135.884 43.2439C136.268 44.7527 136.624 46.2047 136.98 47.5997C137.231 48.2991 137.231 49.0639 136.98 49.7633C136.879 49.947 136.738 50.106 136.568 50.229C136.399 50.3521 136.204 50.4361 135.998 50.4751C135.681 50.5107 135.361 50.5107 135.044 50.4751C133.875 50.5061 132.707 50.3817 131.571 50.105V50.105Z" fill="#263238"/>
<path d="M125.165 50.9021C125.521 50.9021 125.265 53.2365 127.073 55.1013C128.88 56.966 131.343 56.9945 131.343 57.3077C131.343 57.6208 130.745 57.7062 129.706 57.6208C128.34 57.4891 127.065 56.879 126.105 55.8984C125.201 54.9552 124.692 53.7027 124.681 52.3967C124.695 51.4145 125.009 50.8594 125.165 50.9021Z" fill="#263238"/>
<path d="M127.087 25.0804C126.816 25.6355 124.71 25.0804 122.176 25.1516C119.642 25.2227 117.521 25.6355 117.251 25.0804C117.123 24.8099 117.535 24.2974 118.418 23.8277C119.586 23.2568 120.869 22.96 122.169 22.96C123.469 22.96 124.752 23.2568 125.92 23.8277C126.802 24.2974 127.215 24.8099 127.087 25.0804Z" fill="#263238"/>
<path d="M146.574 29.0376C146.147 29.4789 144.738 28.8098 142.958 28.5963C141.179 28.3828 139.656 28.5963 139.371 28.0127C139.243 27.7565 139.528 27.2867 140.24 26.9024C141.177 26.4363 142.237 26.2722 143.272 26.4327C144.31 26.5613 145.282 27.0146 146.047 27.728C146.617 28.2974 146.773 28.8241 146.574 29.0376Z" fill="#263238"/>
<path d="M102.162 38.219C101.934 38.0909 92.9094 34.3329 92.1977 43.9128C91.486 53.4928 101.194 52.2401 101.222 51.9554C101.251 51.6707 102.162 38.219 102.162 38.219Z" fill="#FFBE9D"/>
<path d="M98.5606 48.0836C98.5606 48.0836 98.3898 48.1974 98.0909 48.2971C97.6843 48.4337 97.2407 48.4082 96.8525 48.2259C96.265 47.7871 95.805 47.1998 95.5198 46.5243C95.2346 45.8488 95.1345 45.1096 95.2297 44.3826C95.281 43.5624 95.5041 42.7622 95.8845 42.0339C95.9996 41.745 96.1826 41.4881 96.418 41.2849C96.6533 41.0818 96.9342 40.9383 97.2368 40.8666C97.4322 40.8296 97.6344 40.862 97.8085 40.9581C97.9826 41.0543 98.1177 41.2082 98.1905 41.3933C98.2902 41.678 98.1905 41.8631 98.1905 41.8773C98.1905 41.8915 98.4183 41.7349 98.3613 41.3364C98.335 41.0938 98.2181 40.8701 98.0339 40.71C97.9138 40.5994 97.7722 40.5144 97.618 40.4606C97.4637 40.4067 97.3001 40.385 97.1371 40.3969C96.7395 40.4414 96.3601 40.588 96.0359 40.8225C95.7116 41.0569 95.4535 41.3713 95.2866 41.7349C94.8114 42.5291 94.5423 43.4294 94.5037 44.3541C94.3899 45.1932 94.528 46.0471 94.9006 46.8075C95.2731 47.5679 95.8634 48.2004 96.5962 48.6245C96.8485 48.7211 97.1196 48.7585 97.3886 48.7338C97.6576 48.7091 97.9173 48.623 98.1478 48.4821C98.5321 48.3113 98.6033 48.112 98.5606 48.0836Z" fill="#EB996E"/>
<path d="M96.9094 37.308C97.811 37.3564 98.683 37.6462 99.4342 38.147C100.185 38.6478 100.788 39.3413 101.18 40.1549C101.65 41.5784 101.621 43.1442 102.091 44.5676C102.561 45.9911 103.813 47.4146 105.308 47.2011C105.817 47.0964 106.291 46.8599 106.68 46.5152C107.07 46.1705 107.362 45.7297 107.528 45.2367C107.847 44.2499 107.968 43.2099 107.884 42.1762C107.884 37.6781 107.372 33.1657 107.685 28.6676C107.828 24.129 109.314 19.7349 111.955 16.0414C113.289 14.217 115.091 12.7869 117.171 11.9024C119.251 11.0179 121.531 10.7118 123.77 11.0166C126.703 11.5717 129.25 13.4223 132.14 14.1482C133.855 14.569 135.644 14.5942 137.37 14.2218C139.096 13.8494 140.715 13.0892 142.104 11.9988C142.735 11.6007 143.386 11.2349 144.055 10.9027C144.132 9.83938 143.899 8.77648 143.385 7.84228C138.147 1.8068 127.813 -0.855098 119.898 0.240969C115.876 0.769302 112.018 2.1674 108.591 4.33803C105.164 6.50867 102.252 9.39974 100.055 12.8102C95.9557 19.657 95.7849 29.8063 96.8525 37.308" fill="#263238"/>
<path d="M252.437 256.934C252.437 256.934 149.649 189.519 145.435 188.11C141.222 186.7 131.058 180.039 120.881 182.843C110.703 185.647 101.593 194.772 97.0375 208.095C92.4824 221.419 92.1265 251.24 92.1265 251.24C92.1265 251.24 100.255 274.727 115.913 279.71C117.264 280.128 118.637 280.47 120.026 280.735C139.3 284.564 158.887 275.71 169.663 259.283L171.969 255.795C171.969 255.795 239.199 280.493 240.295 280.151L252.437 256.934Z" fill="#263238"/>
<path d="M287.483 178.274C287.483 178.274 300.066 182.758 300.109 196.864C300.209 223.91 245.547 253.646 245.547 253.646L172.851 205.433V200.366C172.851 200.366 266.444 166.701 287.483 178.274Z" fill="#263238"/>
<path d="M125.265 238.429C125.265 238.429 125.45 238.529 125.834 238.685L127.514 239.354L134.033 241.86L158.232 250.984C168.524 254.813 180.851 259.383 194.673 264.407C208.495 269.432 223.811 274.955 240.224 280.492L240.523 280.592L240.665 280.322C243.241 275.411 245.946 270.244 248.693 264.977L252.793 257.162L252.95 256.863L252.665 256.678L174.26 206.857L150.702 191.996L144.311 188.01L142.645 186.985L142.062 186.658C142.235 186.795 142.416 186.923 142.603 187.042L144.225 188.124L150.56 192.224L173.99 207.284L252.28 257.247L252.152 256.763C250.843 259.24 249.462 261.902 248.053 264.578L240.024 279.923L240.466 279.738C224.11 274.215 208.794 268.72 194.915 263.738L158.432 250.457L134.133 241.547L127.585 239.169L125.877 238.557L125.265 238.429Z" fill="#455A64"/>
<path d="M209.648 229.789C210.308 229.401 210.94 228.968 211.541 228.493C212.737 227.639 214.388 226.344 216.523 224.735C220.68 221.518 226.345 216.963 232.452 211.725C238.558 206.487 243.839 201.576 247.725 197.946C249.633 196.124 251.156 194.643 252.195 193.59C252.758 193.074 253.277 192.512 253.747 191.91C253.131 192.344 252.546 192.82 251.996 193.334L247.37 197.505C243.469 201.035 238.046 205.875 231.968 211.099C225.889 216.323 220.267 220.949 216.196 224.266L211.37 228.209C210.751 228.684 210.175 229.213 209.648 229.789V229.789Z" fill="#455A64"/>
<path d="M266.942 188.366C264.591 187.99 262.183 188.211 259.939 189.007C257.622 189.566 255.48 190.691 253.704 192.28C253.832 192.466 256.551 190.786 260.152 189.718C263.754 188.651 266.956 188.608 266.942 188.366Z" fill="#455A64"/>
<path d="M260.679 184.11C258.955 184.725 257.463 185.859 256.409 187.355C255.157 188.709 254.365 190.422 254.145 192.252C254.359 192.323 255.156 190.06 256.992 187.825C258.828 185.59 260.793 184.338 260.679 184.11Z" fill="#455A64"/>
<path d="M291.483 269.632C291.483 269.546 290.614 269.361 289.618 270.201C288.418 271.319 287.669 272.838 287.511 274.471C287.282 276.054 287.509 277.668 288.166 279.126C288.693 280.236 289.248 280.749 289.319 280.706C289.39 280.663 289.02 280.023 288.664 278.941C288.187 277.537 288.041 276.041 288.237 274.571C288.408 273.119 289.008 271.752 289.96 270.642C290.401 270.215 290.918 269.873 291.483 269.632V269.632Z" fill="#263238"/>
</svg>
