<svg width="354" height="372" viewBox="0 0 354 372" fill="none" xmlns="http://www.w3.org/2000/svg">
<mask id="mask0_9_386" style="mask-type:alpha" maskUnits="userSpaceOnUse" x="0" y="0" width="354" height="372">
<rect width="354" height="372" fill="#D9D9D9"/>
</mask>
<g mask="url(#mask0_9_386)">
<path d="M190.79 31.02H171.47V61.16H190.79V31.02Z" fill="#263238"/>
<path d="M201.14 40H161.36V7.53999C175.28 4.10999 188.59 3.89999 201.14 7.53999V40Z" fill="#CE492D"/>
<path d="M201.61 7.67999C201.151 7.98078 200.657 8.22583 200.14 8.40999C198.793 9.02274 197.411 9.5537 196 9.99999C193.887 10.6552 191.732 11.1664 189.55 11.53C186.87 11.9564 184.163 12.187 181.45 12.22C178.739 12.2166 176.031 12.0127 173.35 11.61C171.163 11.2675 169.001 10.7764 166.88 10.14C165.452 9.72182 164.05 9.22098 162.68 8.63999C162.166 8.45601 161.674 8.21801 161.21 7.92999C161.21 7.80999 163.4 8.70999 167.02 9.67999C169.133 10.242 171.276 10.6794 173.44 10.99C176.092 11.3508 178.764 11.5345 181.44 11.54C184.118 11.5155 186.791 11.305 189.44 10.91C191.605 10.5818 193.749 10.1243 195.86 9.53999C199.42 8.48999 201.56 7.55999 201.61 7.67999Z" fill="#263238"/>
<path d="M174.5 40C174.31 40 174.16 33.76 174.16 26.07C174.16 18.38 174.31 12.13 174.5 12.13C174.69 12.13 174.84 18.37 174.84 26.07C174.84 33.77 174.69 40 174.5 40Z" fill="#263238"/>
<path d="M182.07 40.13C181.88 40.13 181.73 33.87 181.73 26.13C181.73 18.39 181.88 12.13 182.07 12.13C182.26 12.13 182.41 18.39 182.41 26.13C182.41 33.87 182.26 40.13 182.07 40.13Z" fill="#263238"/>
<path d="M189.64 40C189.45 40 189.3 33.73 189.3 26C189.3 18.27 189.45 12 189.64 12C189.83 12 189.98 18.26 189.98 26C189.98 33.74 189.83 40 189.64 40Z" fill="#263238"/>
<path d="M195.94 40C195.75 40 195.6 33.23 195.6 24.87C195.6 16.51 195.75 9.75 195.94 9.75C196.13 9.75 196.28 16.52 196.28 24.87C196.28 33.22 196.13 40 195.94 40Z" fill="#263238"/>
<path d="M167.34 39.82C167.15 39.82 167 33.04 167 24.69C167 16.34 167.15 9.56 167.34 9.56C167.53 9.56 167.68 16.34 167.68 24.69C167.68 33.04 167.53 39.82 167.34 39.82Z" fill="#263238"/>
<path d="M300.778 79.8911L291.127 69.7912L275.366 84.8524L285.018 94.9523L300.778 79.8911Z" fill="#263238"/>
<path d="M301.23 89.82L281.36 69L298.36 52.77C307.12 58.33 313.87 65.18 318.24 73.57L301.23 89.82Z" fill="#CE492D"/>
<path d="M284.68 72.5C284.57 72.38 288.42 68.5 293.28 63.78C298.14 59.06 302.18 55.37 302.28 55.48C302.38 55.59 298.54 59.48 293.68 64.2C288.82 68.92 284.79 72.62 284.68 72.5Z" fill="#263238"/>
<path d="M288.47 76.47C289.262 75.5292 290.128 74.6531 291.06 73.85C292.7 72.29 295 70.16 297.55 67.85L304.12 61.91L306.12 60.12C306.6 59.7 306.84 59.48 306.86 59.48C307.08 59.68 303.05 63.62 297.94 68.28C295.39 70.62 293.05 72.7 291.33 74.18C290.439 75.0186 289.483 75.7844 288.47 76.47V76.47Z" fill="#263238"/>
<path d="M293.51 81.74C294.319 80.798 295.198 79.9188 296.14 79.11C297.8 77.54 300.14 75.4 302.73 73.05L309.41 67.05L311.41 65.27C311.654 65.0482 311.911 64.8411 312.18 64.65C311.446 65.653 310.593 66.563 309.64 67.36C307.99 68.95 305.64 71.1 303.07 73.45C300.5 75.8 298.07 77.88 296.36 79.38C295.476 80.2433 294.523 81.0327 293.51 81.74V81.74Z" fill="#263238"/>
<path d="M298.23 86.55C298.12 86.43 302.02 82.55 306.95 77.89C311.88 73.23 315.95 69.53 316.06 69.65C316.17 69.77 312.27 73.65 307.34 78.31C302.41 82.97 298.34 86.66 298.23 86.55Z" fill="#263238"/>
<path d="M57.385 78.4149L46.9108 87.6589L61.3359 104.004L71.8101 94.7598L57.385 78.4149Z" fill="#263238"/>
<path d="M67.3101 78.36L45.7401 97.36L30.1901 79.78C36.1101 71.26 43.1901 64.78 51.7701 60.78L67.3101 78.36Z" fill="#CE492D"/>
<path d="M49.35 94.21C49.23 94.32 45.49 90.32 40.98 85.27C36.47 80.22 32.98 76.05 33.05 75.95C33.12 75.85 36.91 79.84 41.42 84.89C45.93 89.94 49.47 94.11 49.35 94.21Z" fill="#263238"/>
<path d="M53.4601 90.58C52.5745 89.7492 51.7522 88.8533 51.0001 87.9C49.5101 86.19 47.4701 83.81 45.2401 81.17L39.5601 74.37L37.8001 72.3C37.4001 71.8 37.1901 71.56 37.1901 71.53C37.4001 71.32 41.1901 75.53 45.6401 80.79C47.8701 83.44 49.8501 85.86 51.2701 87.63C52.0792 88.5521 52.8116 89.5387 53.4601 90.58V90.58Z" fill="#263238"/>
<path d="M58.94 85.75C58.0278 84.9099 57.182 84.0005 56.41 83.03C54.91 81.3 52.86 78.89 50.62 76.2L44.93 69.29L43.23 67.17C43.0089 66.9223 42.8113 66.6545 42.64 66.37C43.6061 67.15 44.4786 68.0392 45.24 69.02C46.77 70.74 48.83 73.14 51.07 75.83C53.31 78.52 55.31 80.97 56.73 82.77C57.5432 83.7043 58.2821 84.7006 58.94 85.75V85.75Z" fill="#263238"/>
<path d="M63.93 81.23C63.81 81.33 60.08 77.23 55.62 72.23C51.16 67.23 47.6201 62.9 47.7501 62.8C47.8801 62.7 51.5901 66.74 56.0501 71.8C60.5101 76.86 64.05 81.12 63.93 81.23Z" fill="#263238"/>
<path d="M289.972 319.068C352.155 256.884 352.155 156.065 289.972 93.8823C227.789 31.6991 126.97 31.6991 64.7868 93.8823C2.60365 156.065 2.60365 256.884 64.7868 319.068C126.97 381.251 227.789 381.251 289.972 319.068Z" fill="#CE492D"/>
<path d="M280.822 309.918C337.952 252.788 337.952 160.162 280.822 103.032C223.692 45.9024 131.067 45.9024 73.9368 103.032C16.807 160.162 16.807 252.788 73.9368 309.918C131.067 367.047 223.692 367.047 280.822 309.918Z" fill="white"/>
<path d="M177.38 353.26C96.4401 353.26 30.5901 287.41 30.5901 206.47C30.5901 125.53 96.4401 59.68 177.38 59.68C258.32 59.68 324.17 125.53 324.17 206.47C324.17 287.41 258.32 353.26 177.38 353.26ZM177.38 60.68C96.9901 60.68 31.5901 126.08 31.5901 206.47C31.5901 286.86 97.0001 352.26 177.38 352.26C257.76 352.26 323.17 286.86 323.17 206.47C323.17 126.08 257.77 60.68 177.38 60.68Z" fill="#263238"/>
<path d="M85.5801 148.05C91.6701 129.13 104.16 116.33 120.71 105.32C137.26 94.31 159.82 90.17 179.63 91.85V209.75L85.5801 148.05Z" fill="#CE492D"/>
<g opacity="0.8">
<path d="M85.5801 148.05C91.6701 129.13 104.16 116.33 120.71 105.32C137.26 94.31 159.82 90.17 179.63 91.85V209.75L85.5801 148.05Z" fill="white"/>
</g>
<path d="M166.97 209.11L101.16 157.99L178.23 193.52L180.49 207.02L166.97 209.11Z" fill="#CE492D"/>
<g opacity="0.4">
<path d="M101.16 157.99L169.88 198.39L178.23 193.52L101.16 157.99Z" fill="black"/>
</g>
<path d="M185.718 219.935C192.713 217.066 196.058 209.07 193.189 202.074C190.32 195.079 182.324 191.734 175.328 194.603C168.333 197.472 164.988 205.469 167.857 212.464C170.726 219.459 178.723 222.804 185.718 219.935Z" fill="#FAFAFA"/>
<path d="M180.53 193.55C179.417 193.676 178.312 193.863 177.22 194.11C174.734 194.77 172.487 196.122 170.74 198.009C168.992 199.896 167.817 202.241 167.35 204.77C166.931 207.116 167.142 209.532 167.96 211.77C168.39 212.985 169.008 214.126 169.79 215.15C170.578 216.24 171.537 217.196 172.63 217.98C174.919 219.662 177.685 220.57 180.525 220.57C183.365 220.57 186.132 219.662 188.42 217.98C189.518 217.198 190.481 216.243 191.27 215.15C192.049 214.123 192.666 212.983 193.1 211.77C193.916 209.531 194.123 207.115 193.7 204.77C193.331 202.711 192.481 200.769 191.22 199.1C189.391 196.652 186.792 194.891 183.84 194.1C182.748 193.854 181.643 193.667 180.53 193.54C181.662 193.459 182.8 193.56 183.9 193.84C186.482 194.459 188.832 195.808 190.667 197.727C192.503 199.646 193.747 202.053 194.25 204.66C194.72 207.117 194.523 209.655 193.68 212.01C192.735 214.613 191.045 216.881 188.82 218.53C186.417 220.296 183.512 221.248 180.53 221.248C177.548 221.248 174.643 220.296 172.24 218.53C171.086 217.697 170.073 216.684 169.24 215.53C168.431 214.451 167.793 213.254 167.35 211.98C166.504 209.626 166.303 207.088 166.77 204.63C167.273 202.023 168.517 199.616 170.353 197.697C172.188 195.778 174.538 194.429 177.12 193.81C178.235 193.541 179.387 193.453 180.53 193.55V193.55Z" fill="#263238"/>
<path d="M180.53 197.05C182.548 197.048 184.521 197.645 186.2 198.764C187.878 199.884 189.187 201.476 189.961 203.34C190.734 205.203 190.938 207.255 190.545 209.234C190.153 211.213 189.182 213.031 187.756 214.459C186.33 215.886 184.513 216.859 182.534 217.253C180.555 217.648 178.503 217.446 176.639 216.675C174.775 215.903 173.181 214.595 172.06 212.918C170.939 211.24 170.34 209.268 170.34 207.25C170.34 204.547 171.413 201.954 173.324 200.041C175.235 198.128 177.827 197.053 180.53 197.05V197.05Z" fill="#263238"/>
<path d="M179.85 203.23C179.85 203.23 177.05 115.06 181.13 96.46C181.13 96.46 188 149.91 179.85 203.23Z" fill="#263238"/>
<path d="M171.88 341.71H171.71L172.1 330.71H172.41L171.88 341.71ZM226.77 332.79L222.67 322.59L222.97 322.47L226.92 332.74L226.77 332.79ZM117.9 327.55L117.73 327.46L122.63 317.61L122.9 317.75L117.9 327.55ZM273.4 302.25L265.56 294.54L265.77 294.33L273.54 302.11L273.4 302.25ZM74.4001 292.68L74.2301 292.47L82.7601 285.47L82.9001 285.65L74.4001 292.68ZM303.67 255.37L293.36 251.54L293.47 251.25L303.74 255.2L303.67 255.37ZM48.7901 243.12L48.7101 242.84L59.3401 240V240.18L48.7901 243.12ZM301.21 200.84V200.67L312.21 200.01V200.32L301.21 200.84ZM301.21 200.65V200.4L312.21 199.74V200L301.21 200.65ZM56.4301 189.08L45.5601 187.43V187.18L56.4401 188.84L56.4301 189.08ZM287.74 151.22L287.64 151.02L297.41 145.96L297.53 146.19L287.74 151.22ZM74.5201 141.22L65.2701 135.22L65.3901 135.03L74.6601 140.95L74.5201 141.22ZM255.33 111.6L255.14 111.45L262.01 102.86L262.2 103.01L255.33 111.6ZM110.51 104.75L104.51 95.54L104.68 95.44L110.78 104.59L110.51 104.75ZM209.59 88.51L209.38 88.46L212.14 77.81L212.41 77.88L209.59 88.51ZM158.22 86.12L156.43 75.26H156.67L158.45 86.12H158.22Z" fill="#263238"/>
</g>
</svg>
