<svg width="353" height="382" viewBox="0 0 353 382" fill="none" xmlns="http://www.w3.org/2000/svg">
<path opacity="0.2" d="M348.21 121.45H310.37C308.028 121.45 306.13 123.348 306.13 125.69V145.39C306.13 147.732 308.028 149.63 310.37 149.63H348.21C350.552 149.63 352.45 147.732 352.45 145.39V125.69C352.45 123.348 350.552 121.45 348.21 121.45Z" fill="white"/>
<path d="M306.92 124.55L327.06 134.89C327.693 135.208 328.392 135.374 329.1 135.374C329.808 135.374 330.507 135.208 331.14 134.89L351.8 124.47" stroke="white" stroke-width="0.75" stroke-linecap="round" stroke-linejoin="round"/>
<path opacity="0.2" d="M58.24 119.47C58.0889 119.274 57.895 119.116 57.6731 119.007C57.4512 118.897 57.2073 118.84 56.96 118.84H15.62L14 114.05C13.8874 113.743 13.6833 113.477 13.415 113.289C13.1468 113.101 12.8274 113.001 12.5 113H2C1.59621 113.032 1.21927 113.215 0.944366 113.512C0.669461 113.81 0.516785 114.2 0.516785 114.605C0.516785 115.01 0.669461 115.4 0.944366 115.698C1.21927 115.995 1.59621 116.178 2 116.21H11.31L21.4 146.5C21.5053 146.82 21.7089 147.099 21.9818 147.296C22.2548 147.494 22.5831 147.6 22.92 147.6H23.51C22.9705 148.435 22.6661 149.4 22.6289 150.394C22.5916 151.387 22.8229 152.372 23.2983 153.245C23.7737 154.118 24.4757 154.847 25.3304 155.355C26.1851 155.863 27.1608 156.131 28.155 156.131C29.1492 156.131 30.1249 155.863 30.9796 155.355C31.8343 154.847 32.5363 154.118 33.0117 153.245C33.4871 152.372 33.7184 151.387 33.6811 150.394C33.6439 149.4 33.3395 148.435 32.8 147.6H40.51C39.9705 148.435 39.6661 149.4 39.6289 150.394C39.5916 151.387 39.8229 152.372 40.2983 153.245C40.7737 154.118 41.4757 154.847 42.3304 155.355C43.1851 155.863 44.1608 156.131 45.155 156.131C46.1492 156.131 47.1249 155.863 47.9796 155.355C48.8343 154.847 49.5363 154.118 50.0117 153.245C50.4871 152.372 50.7184 151.387 50.6811 150.394C50.6439 149.4 50.3395 148.435 49.8 147.6H51.04C51.4438 147.568 51.8207 147.385 52.0956 147.088C52.3705 146.79 52.5232 146.4 52.5232 145.995C52.5232 145.59 52.3705 145.2 52.0956 144.902C51.8207 144.605 51.4438 144.422 51.04 144.39H24.04L22.28 139.1H52.28C52.6331 139.099 52.9761 138.982 53.2562 138.767C53.5363 138.552 53.7379 138.251 53.83 137.91L58.4 120.91C58.4885 120.674 58.5201 120.421 58.4923 120.171C58.4645 119.921 58.3781 119.681 58.24 119.47V119.47ZM28.24 152.84C27.7811 152.84 27.3326 152.704 26.9511 152.449C26.5696 152.194 26.2722 151.832 26.0966 151.408C25.921 150.984 25.8751 150.517 25.9646 150.067C26.0541 149.617 26.2751 149.204 26.5995 148.88C26.924 148.555 27.3374 148.334 27.7874 148.245C28.2374 148.155 28.7039 148.201 29.1278 148.377C29.5517 148.552 29.9141 148.85 30.169 149.231C30.4239 149.613 30.56 150.061 30.56 150.52C30.5601 150.829 30.4984 151.135 30.3787 151.42C30.259 151.704 30.0837 151.962 29.8629 152.178C29.6422 152.395 29.3805 152.564 29.0932 152.678C28.8059 152.792 28.4989 152.847 28.19 152.84H28.24ZM45.24 152.84C44.7811 152.84 44.3326 152.704 43.9511 152.449C43.5696 152.194 43.2722 151.832 43.0966 151.408C42.921 150.984 42.8751 150.517 42.9646 150.067C43.0541 149.617 43.2751 149.204 43.5995 148.88C43.924 148.555 44.3374 148.334 44.7874 148.245C45.2374 148.155 45.7039 148.201 46.1278 148.377C46.5517 148.552 46.9141 148.85 47.169 149.231C47.4239 149.613 47.56 150.061 47.56 150.52C47.5601 150.829 47.4984 151.135 47.3787 151.42C47.259 151.704 47.0837 151.962 46.8629 152.178C46.6422 152.395 46.3805 152.564 46.0932 152.678C45.8059 152.792 45.4989 152.847 45.19 152.84H45.24ZM49.52 135.84H43.58V122.05H49.52V135.84ZM34.43 122.05H40.37V135.84H34.43V122.05ZM31.22 135.84H25.22V122.05H31.22V135.84ZM16.69 122.05H22V135.84H21.28L16.69 122.05ZM52.69 130.17V122.05H54.88L52.69 130.17Z" fill="white"/>
<path opacity="0.2" d="M312 43L315.71 41.31L314.92 36.86L310.83 36.54C310.312 35.166 309.623 33.8625 308.78 32.66L310.89 29.1L307.7 25.9L304.11 28.04C302.045 26.6361 299.708 25.6821 297.25 25.24L296.25 21.14H291.73L290.73 25.26C289.326 25.5277 287.959 25.9642 286.66 26.56L283.43 23.76L279.73 26.35L281.25 30.35C280.259 31.3696 279.39 32.5005 278.66 33.72L274.4 33.28L272.85 37.53L276.38 39.92C276.207 40.9107 276.12 41.9144 276.12 42.92C276.12 43.35 276.12 43.77 276.17 44.19L272.47 46.26L273.64 50.63H277.83C278.451 51.9381 279.226 53.1669 280.14 54.29L278.29 58L281.75 60.9L285.11 58.5C286.371 59.227 287.713 59.8011 289.11 60.21L289.78 64.21L294.29 64.61L295.64 60.77C297.12 60.6419 298.578 60.3295 299.98 59.84L302.82 62.72L306.74 60.46L305.66 56.57C306.792 55.6048 307.799 54.5031 308.66 53.29L312.66 54.02L314.6 50L311.48 47.42C311.833 45.9734 312.008 44.489 312 43V43ZM305.31 42.92C305.31 45.1529 304.648 47.3358 303.407 49.1924C302.167 51.049 300.403 52.4961 298.34 53.3506C296.277 54.2051 294.007 54.4287 291.817 53.9931C289.627 53.5574 287.616 52.4822 286.037 50.9032C284.458 49.3243 283.383 47.3126 282.947 45.1226C282.511 42.9325 282.735 40.6625 283.589 38.5995C284.444 36.5365 285.891 34.7733 287.748 33.5327C289.604 32.2921 291.787 31.63 294.02 31.63C295.513 31.6233 296.993 31.9132 298.373 32.4827C299.753 33.0522 301.007 33.8901 302.061 34.9478C303.114 36.0055 303.948 37.2618 304.513 38.6441C305.077 40.0263 305.362 41.5069 305.35 43L305.31 42.92Z" fill="white"/>
<path opacity="0.2" d="M297.91 241.22C297.687 241.636 297.633 242.122 297.76 242.577C297.886 243.031 298.184 243.419 298.59 243.66C299.082 243.958 299.67 244.052 300.23 243.923C300.79 243.794 301.278 243.452 301.59 242.97L306.86 234.84L306.96 234.66L313.74 233.94L313.05 235.29C312.944 235.488 312.913 235.717 312.963 235.935C313.012 236.154 313.139 236.348 313.32 236.48C313.422 236.552 313.539 236.601 313.661 236.625C313.784 236.648 313.91 236.646 314.032 236.618C314.154 236.589 314.268 236.536 314.368 236.46C314.467 236.385 314.55 236.289 314.61 236.18L315.98 233.71L321.08 233.17L320.08 235.05C319.976 235.252 319.952 235.486 320.013 235.705C320.074 235.924 320.216 236.111 320.41 236.23C320.434 236.337 320.491 236.434 320.571 236.508C320.652 236.582 320.753 236.63 320.862 236.645C320.97 236.66 321.081 236.642 321.179 236.593C321.277 236.544 321.357 236.466 321.41 236.37L323.32 232.93L326.7 232.57C327.322 232.507 327.921 232.307 328.456 231.983C328.99 231.66 329.446 231.221 329.79 230.7L330.35 229.86L320 228.78C320 228.78 313.29 228.17 312.24 224.87L317.41 215.21L317.46 215.08L324.63 214.3L326.2 212.22L319.33 210.53L319.8 209.4C319.81 209.376 319.812 209.35 319.804 209.325C319.797 209.301 319.781 209.279 319.76 209.265C319.739 209.251 319.713 209.245 319.687 209.247C319.662 209.25 319.638 209.262 319.62 209.28L318.62 210.28L313.86 204.79L312.5 207.32L315.37 213.53L315.19 213.71L309.6 222C308.55 222.88 306.6 224 304.98 222.16C302.52 219.49 296.05 209.08 296.05 209.08L295.41 210.67C295 211.711 295 212.869 295.41 213.91L296.55 216.91L295 219.8C294.894 219.998 294.863 220.227 294.913 220.445C294.962 220.664 295.089 220.858 295.27 220.99C295.374 221.06 295.492 221.107 295.615 221.13C295.739 221.152 295.866 221.148 295.988 221.119C296.11 221.09 296.225 221.036 296.325 220.961C296.425 220.885 296.509 220.789 296.57 220.68L297.37 219.24L299.05 223.63L297.57 226.51C297.462 226.71 297.431 226.942 297.483 227.163C297.534 227.384 297.665 227.579 297.85 227.71C297.954 227.78 298.07 227.827 298.193 227.849C298.316 227.871 298.442 227.868 298.563 227.839C298.685 227.81 298.798 227.755 298.898 227.68C298.997 227.604 299.08 227.509 299.14 227.4L300 226L302.56 232.67L297.91 241.22Z" fill="white"/>
<path opacity="0.2" d="M111.07 17.73H63.65V46.25H111.07V17.73Z" fill="white"/>
<path d="M86.64 39.95C91.2958 39.95 95.07 36.1758 95.07 31.52C95.07 26.8642 91.2958 23.09 86.64 23.09C81.9843 23.09 78.21 26.8642 78.21 31.52C78.21 36.1758 81.9843 39.95 86.64 39.95Z" fill="white"/>
<path opacity="0.2" d="M92.76 31.52L83.49 26.17V36.87L92.76 31.52Z" fill="white"/>
<path opacity="0.2" d="M53.62 208.64V231C52.696 230.512 51.6651 230.261 50.62 230.27C47.72 230.27 45.38 232.08 45.38 234.27C45.38 236.46 47.72 238.32 50.62 238.32C55.5 238.32 55.86 234.98 55.86 234.98V215.34L69.78 213.34V228.34C68.8535 227.859 67.8237 227.612 66.78 227.62C63.88 227.62 61.54 229.43 61.54 231.67C61.54 233.91 63.88 235.67 66.78 235.67C69.35 235.67 71.49 234.22 71.92 232.33L72 213V206L53.62 208.64Z" fill="white"/>
<path opacity="0.2" d="M205.05 5V2.41C205.05 1.98301 204.88 1.57349 204.578 1.27156C204.276 0.969627 203.867 0.800003 203.44 0.800003H200.71C200.283 0.800003 199.873 0.969627 199.572 1.27156C199.27 1.57349 199.1 1.98301 199.1 2.41V11.78H172.1V2.41C172.1 1.98301 171.93 1.57349 171.628 1.27156C171.327 0.969627 170.917 0.800003 170.49 0.800003H167.58C167.158 0.807864 166.756 0.98095 166.461 1.28204C166.165 1.58312 166 1.98815 166 2.41V5H161.71C161.225 5 160.759 5.1928 160.416 5.536C160.073 5.87919 159.88 6.34466 159.88 6.83V19C159.88 19.4863 160.072 19.9528 160.415 20.2976C160.758 20.6423 161.224 20.8374 161.71 20.84H166V23.4C166.002 23.8184 166.168 24.2194 166.461 24.5181C166.754 24.8168 167.152 24.9896 167.57 25H170.48C170.907 25 171.317 24.8304 171.618 24.5284C171.92 24.2265 172.09 23.817 172.09 23.39V16H199.09V23.34C199.083 23.5564 199.12 23.772 199.199 23.9738C199.277 24.1756 199.396 24.3595 199.547 24.5145C199.698 24.6695 199.879 24.7924 200.079 24.8758C200.279 24.9592 200.493 25.0014 200.71 25H203.44C203.867 25 204.276 24.8304 204.578 24.5284C204.88 24.2265 205.05 23.817 205.05 23.39V20.8H209.17C209.649 20.7975 210.109 20.608 210.451 20.2718C210.793 19.9356 210.99 19.4793 211 19V6.81C210.995 6.32813 210.8 5.86779 210.457 5.52891C210.114 5.19003 209.652 4.99997 209.17 5H205.05Z" fill="white"/>
<path d="M185.59 257.49C246.96 257.49 296.71 207.74 296.71 146.37C296.71 85.0001 246.96 35.25 185.59 35.25C124.22 35.25 74.47 85.0001 74.47 146.37C74.47 207.74 124.22 257.49 185.59 257.49Z" fill="white"/>
<path d="M185.59 248.77C242.144 248.77 287.99 202.924 287.99 146.37C287.99 89.816 242.144 43.97 185.59 43.97C129.036 43.97 83.19 89.816 83.19 146.37C83.19 202.924 129.036 248.77 185.59 248.77Z" fill="#CE492D" stroke="#263238" stroke-miterlimit="10"/>
<g opacity="0.2">
<path d="M185.59 149.72C185.143 149.723 184.701 149.636 184.288 149.464C183.876 149.292 183.503 149.039 183.19 148.72L118.78 82.57C118.192 81.9277 117.877 81.0816 117.902 80.211C117.927 79.3404 118.29 78.5139 118.915 77.9066C119.539 77.2992 120.375 76.9589 121.246 76.9577C122.117 76.9564 122.954 77.2944 123.58 77.9L188 144C188.461 144.472 188.772 145.069 188.894 145.717C189.017 146.365 188.946 147.034 188.689 147.642C188.433 148.249 188.003 148.768 187.454 149.132C186.904 149.496 186.259 149.691 185.6 149.69L185.59 149.72Z" fill="#263238"/>
</g>
<path opacity="0.2" d="M156.7 169.05C155.979 169.053 155.277 168.824 154.696 168.397C154.116 167.969 153.69 167.366 153.48 166.676C153.27 165.987 153.288 165.248 153.531 164.569C153.774 163.891 154.23 163.309 154.83 162.91L183.73 143.58C184.469 143.112 185.361 142.952 186.216 143.133C187.072 143.314 187.822 143.823 188.308 144.55C188.793 145.277 188.976 146.165 188.815 147.025C188.655 147.884 188.165 148.647 187.45 149.15L158.56 168.48C158.01 168.849 157.363 169.048 156.7 169.05V169.05Z" fill="#263238"/>
<path d="M189.74 146.37C189.742 145.549 189.5 144.745 189.045 144.062C188.591 143.378 187.943 142.844 187.185 142.529C186.427 142.213 185.592 142.13 184.787 142.289C183.981 142.448 183.24 142.842 182.659 143.422C182.078 144.002 181.681 144.741 181.52 145.547C181.36 146.352 181.441 147.187 181.755 147.946C182.069 148.705 182.601 149.353 183.283 149.81C183.966 150.266 184.769 150.51 185.59 150.51C186.689 150.51 187.743 150.074 188.521 149.298C189.299 148.522 189.737 147.469 189.74 146.37V146.37Z" fill="#263238" stroke="#263238" stroke-miterlimit="10" stroke-linecap="round"/>
<path d="M185.67 53.13V66.97" stroke="#263238" stroke-width="2" stroke-miterlimit="10" stroke-linecap="round"/>
<path d="M185.67 224.69V238.53" stroke="#263238" stroke-width="2" stroke-miterlimit="10" stroke-linecap="round"/>
<path d="M278.37 145.83H264.52" stroke="#263238" stroke-width="2" stroke-miterlimit="10" stroke-linecap="round"/>
<path d="M106.81 145.83H92.97" stroke="#263238" stroke-width="2" stroke-miterlimit="10" stroke-linecap="round"/>
<path d="M234.28 66.9L227.02 78.69" stroke="#263238" stroke-width="2" stroke-miterlimit="10" stroke-linecap="round"/>
<path d="M144.31 212.97L137.05 224.76" stroke="#263238" stroke-width="2" stroke-miterlimit="10" stroke-linecap="round"/>
<path d="M267.22 101.76L255.04 108.34" stroke="#263238" stroke-width="2" stroke-miterlimit="10" stroke-linecap="round"/>
<path d="M116.29 183.32L104.11 189.9" stroke="#263238" stroke-width="2" stroke-miterlimit="10" stroke-linecap="round"/>
<path d="M264.6 194.45L252.81 187.18" stroke="#263238" stroke-width="2" stroke-miterlimit="10" stroke-linecap="round"/>
<path d="M118.53 104.48L106.74 97.22" stroke="#263238" stroke-width="2" stroke-miterlimit="10" stroke-linecap="round"/>
<path d="M229.74 227.39L223.16 215.2" stroke="#263238" stroke-width="2" stroke-miterlimit="10" stroke-linecap="round"/>
<path d="M148.18 76.46L141.6 64.28" stroke="#263238" stroke-width="2" stroke-miterlimit="10" stroke-linecap="round"/>
<path d="M183.49 381.93C227.513 381.93 263.2 377.713 263.2 372.51C263.2 367.307 227.513 363.09 183.49 363.09C139.467 363.09 103.78 367.307 103.78 372.51C103.78 377.713 139.467 381.93 183.49 381.93Z" fill="#CE492D"/>
<path opacity="0.5" d="M183.49 381.93C227.513 381.93 263.2 377.713 263.2 372.51C263.2 367.307 227.513 363.09 183.49 363.09C139.467 363.09 103.78 367.307 103.78 372.51C103.78 377.713 139.467 381.93 183.49 381.93Z" fill="white"/>
<path d="M204.88 232.35C204.77 230.13 204.88 226.71 204.97 224.74C205.236 223.147 205.37 221.535 205.37 219.92C205.37 198.48 197.1 196.68 186.88 196.68C176.66 196.68 168.39 200.12 168.39 219.92C168.39 220.44 168.39 220.92 168.44 221.47C168.53 222.33 169.37 230.55 168.6 233.65C167.78 236.92 161.23 237.58 157.47 245.43C153.71 253.28 161.89 264.74 188.56 266.21C215.23 267.68 218 249.86 218 243.81C218 237.76 205.05 235.62 204.88 232.35Z" fill="#263238"/>
<path d="M167.74 221.55L168.4 221.48V221.39L167.74 221.55Z" fill="#263238"/>
<path d="M171.5 251C171.5 251 160.71 251.59 156.88 253.74C153.05 255.89 152.33 268.58 152.33 268.58L140.85 293.22C140.85 293.22 109.98 271.69 107.35 269.54C104.72 267.39 104 265.71 101.35 264.03C98.7 262.35 97.76 262.36 94.41 262.36C91.06 262.36 90.58 262.84 90.82 263.79C91.06 264.74 92.26 264.99 93.21 264.99C94.2603 265.074 95.3031 265.234 96.33 265.47L86.75 269.3C84.36 270.25 84.84 266.42 82.69 266.42C80.54 266.42 80.77 271.93 84.36 274.56C87.95 277.19 90.36 276.47 93.21 276.23C96.06 275.99 102.79 275.04 102.79 275.04C102.79 275.04 121.21 291.31 127.91 297.29C134.61 303.27 143.7 309.01 147.05 306.62C150.4 304.23 163.05 280.78 163.05 280.78L171.18 259.25C171.18 259.25 173.45 254.73 171.5 251Z" fill="white"/>
<path opacity="0.1" d="M171.5 251C171.5 251 160.71 251.59 156.88 253.74C153.05 255.89 152.33 268.58 152.33 268.58L140.85 293.22C140.85 293.22 109.98 271.69 107.35 269.54C104.72 267.39 104 265.71 101.35 264.03C98.7 262.35 97.76 262.36 94.41 262.36C91.06 262.36 90.58 262.84 90.82 263.79C91.06 264.74 92.26 264.99 93.21 264.99C94.2603 265.074 95.3031 265.234 96.33 265.47L86.75 269.3C84.36 270.25 84.84 266.42 82.69 266.42C80.54 266.42 80.77 271.93 84.36 274.56C87.95 277.19 90.36 276.47 93.21 276.23C96.06 275.99 102.79 275.04 102.79 275.04C102.79 275.04 121.21 291.31 127.91 297.29C134.61 303.27 143.7 309.01 147.05 306.62C150.4 304.23 163.05 280.78 163.05 280.78L171.18 259.25C171.18 259.25 173.45 254.73 171.5 251Z" fill="black"/>
<path d="M171.5 251C171.5 251 160.71 251.59 156.88 253.74C153.05 255.89 152.33 268.58 152.33 268.58L140.85 293.22C140.85 293.22 109.98 271.69 107.35 269.54C104.72 267.39 104 265.71 101.35 264.03C98.7 262.35 97.76 262.36 94.41 262.36C91.06 262.36 90.58 262.84 90.82 263.79C91.06 264.74 92.26 264.99 93.21 264.99C94.2603 265.074 95.3031 265.234 96.33 265.47L86.75 269.3C84.36 270.25 84.84 266.42 82.69 266.42C80.54 266.42 80.77 271.93 84.36 274.56C87.95 277.19 90.36 276.47 93.21 276.23C96.06 275.99 102.79 275.04 102.79 275.04C102.79 275.04 121.21 291.31 127.91 297.29C134.61 303.27 143.7 309.01 147.05 306.62C150.4 304.23 163.05 280.78 163.05 280.78L171.18 259.25C171.18 259.25 173.45 254.73 171.5 251Z" stroke="#263238" stroke-miterlimit="10" stroke-linecap="round"/>
<path d="M85.05 275.09C85.05 275.09 80.39 271.31 82.9 267.61C83.52 266.69 84.9 268.08 85.3 270.61C85.7 273.14 86.96 274.12 87.61 274.3" fill="white"/>
<path opacity="0.1" d="M85.05 275.09C85.05 275.09 80.39 271.31 82.9 267.61C83.52 266.69 84.9 268.08 85.3 270.61C85.7 273.14 86.96 274.12 87.61 274.3" fill="black"/>
<path d="M85.05 275.09C85.05 275.09 80.39 271.31 82.9 267.61C83.52 266.69 84.9 268.08 85.3 270.61C85.7 273.14 86.96 274.12 87.61 274.3" stroke="#263238" stroke-miterlimit="10" stroke-linecap="round"/>
<path d="M88.53 274.26C87.42 274.26 87.48 271.26 85.39 269.83C83.73 268.66 83.94 270.96 84.33 272.83C84.4826 273.597 84.8629 274.3 85.4213 274.848C85.9796 275.396 86.6901 275.762 87.46 275.9V275.9C88.1762 276.079 88.9215 276.11 89.65 275.99" fill="white"/>
<path opacity="0.1" d="M88.53 274.26C87.42 274.26 87.48 271.26 85.39 269.83C83.73 268.66 83.94 270.96 84.33 272.83C84.4826 273.597 84.8629 274.3 85.4213 274.848C85.9796 275.396 86.6901 275.762 87.46 275.9V275.9C88.1762 276.079 88.9215 276.11 89.65 275.99" fill="black"/>
<path d="M88.53 274.26C87.42 274.26 87.48 271.26 85.39 269.83C83.73 268.66 83.94 270.96 84.33 272.83C84.4826 273.597 84.8629 274.3 85.4213 274.848C85.9796 275.396 86.6901 275.762 87.46 275.9V275.9C88.1762 276.079 88.9215 276.11 89.65 275.99" stroke="#263238" stroke-miterlimit="10" stroke-linecap="round"/>
<path d="M102.57 269.37C102.57 269.37 101 268.26 97.95 269.28C94.9 270.3 91.3 274.73 90.47 274.36C89.6936 273.915 89.1041 273.205 88.81 272.36C88.34 271.44 87.43 270.11 86.81 271.18C85.43 273.52 89.19 276.18 89.19 276.18C89.19 276.18 89.71 276.62 92.62 276.27C95.53 275.92 102.1 275 102.1 275" fill="white"/>
<path opacity="0.1" d="M102.57 269.37C102.57 269.37 101 268.26 97.95 269.28C94.9 270.3 91.3 274.73 90.47 274.36C89.6936 273.915 89.1041 273.205 88.81 272.36C88.34 271.44 87.43 270.11 86.81 271.18C85.43 273.52 89.19 276.18 89.19 276.18C89.19 276.18 89.71 276.62 92.62 276.27C95.53 275.92 102.1 275 102.1 275" fill="black"/>
<path d="M102.57 269.37C102.57 269.37 101 268.26 97.95 269.28C94.9 270.3 91.3 274.73 90.47 274.36C89.6936 273.915 89.1041 273.205 88.81 272.36C88.34 271.44 87.43 270.11 86.81 271.18C85.43 273.52 89.19 276.18 89.19 276.18C89.19 276.18 89.71 276.62 92.62 276.27C95.53 275.92 102.1 275 102.1 275" stroke="#263238" stroke-miterlimit="10" stroke-linecap="round"/>
<path d="M163.23 275.65L159.74 265.66" stroke="#263238" stroke-miterlimit="10" stroke-linecap="round"/>
<path d="M199.51 250.78C199.51 250.78 210.88 251.59 214.71 253.78C218.54 255.97 219.26 268.62 219.26 268.62L230.74 293.26C230.74 293.26 261.61 271.73 264.24 269.58C266.87 267.43 267.59 265.75 270.24 264.07C272.89 262.39 273.83 262.4 277.18 262.4C280.53 262.4 281.01 262.88 280.77 263.83C280.53 264.78 279.33 265.03 278.37 265.03C277.323 265.114 276.284 265.275 275.26 265.51L284.83 269.34C287.23 270.29 286.75 266.46 288.9 266.46C291.05 266.46 290.82 271.97 287.23 274.6C283.64 277.23 281.23 276.51 278.37 276.27C275.51 276.03 268.8 275.08 268.8 275.08C268.8 275.08 250.38 291.35 243.68 297.33C236.98 303.31 227.89 309.05 224.54 306.66C221.19 304.27 208.54 280.82 208.54 280.82L200.41 259.29C200.41 259.29 197.57 254.51 199.51 250.78Z" fill="white"/>
<path opacity="0.1" d="M199.51 250.78C199.51 250.78 210.88 251.59 214.71 253.78C218.54 255.97 219.26 268.62 219.26 268.62L230.74 293.26C230.74 293.26 261.61 271.73 264.24 269.58C266.87 267.43 267.59 265.75 270.24 264.07C272.89 262.39 273.83 262.4 277.18 262.4C280.53 262.4 281.01 262.88 280.77 263.83C280.53 264.78 279.33 265.03 278.37 265.03C277.323 265.114 276.284 265.275 275.26 265.51L284.83 269.34C287.23 270.29 286.75 266.46 288.9 266.46C291.05 266.46 290.82 271.97 287.23 274.6C283.64 277.23 281.23 276.51 278.37 276.27C275.51 276.03 268.8 275.08 268.8 275.08C268.8 275.08 250.38 291.35 243.68 297.33C236.98 303.31 227.89 309.05 224.54 306.66C221.19 304.27 208.54 280.82 208.54 280.82L200.41 259.29C200.41 259.29 197.57 254.51 199.51 250.78Z" fill="black"/>
<path d="M199.51 250.78C199.51 250.78 210.88 251.59 214.71 253.78C218.54 255.97 219.26 268.62 219.26 268.62L230.74 293.26C230.74 293.26 261.61 271.73 264.24 269.58C266.87 267.43 267.59 265.75 270.24 264.07C272.89 262.39 273.83 262.4 277.18 262.4C280.53 262.4 281.01 262.88 280.77 263.83C280.53 264.78 279.33 265.03 278.37 265.03C277.323 265.114 276.284 265.275 275.26 265.51L284.83 269.34C287.23 270.29 286.75 266.46 288.9 266.46C291.05 266.46 290.82 271.97 287.23 274.6C283.64 277.23 281.23 276.51 278.37 276.27C275.51 276.03 268.8 275.08 268.8 275.08C268.8 275.08 250.38 291.35 243.68 297.33C236.98 303.31 227.89 309.05 224.54 306.66C221.19 304.27 208.54 280.82 208.54 280.82L200.41 259.29C200.41 259.29 197.57 254.51 199.51 250.78Z" stroke="#263238" stroke-miterlimit="10" stroke-linecap="round"/>
<path d="M208.54 273.56L211.32 265.43" stroke="#263238" stroke-miterlimit="10" stroke-linecap="round"/>
<path d="M287.69 273.73C287.69 273.73 289.69 268.08 288.69 267.61C287.69 267.14 286.69 268.08 286.29 270.61C285.89 273.14 284.63 274.12 283.98 274.3" fill="white"/>
<path opacity="0.1" d="M289.06 272.51C289.06 272.51 289.71 268.08 288.69 267.61C287.67 267.14 286.69 268.08 286.29 270.61C285.89 273.14 284.63 274.12 283.98 274.3" fill="black"/>
<path d="M287.69 273.73C287.69 273.73 289.69 268.08 288.69 267.61C287.69 267.14 286.69 268.08 286.29 270.61C285.89 273.14 284.63 274.12 283.98 274.3" stroke="#263238" stroke-miterlimit="10" stroke-linecap="round"/>
<path d="M286.17 274.74C286.17 274.74 288.69 267.61 285.77 269.5C283.62 270.89 284.17 274.26 283.06 274.26" fill="white"/>
<path opacity="0.1" d="M286.75 274.82C286.75 274.82 288.69 267.61 285.75 269.5C283.6 270.89 284.15 274.26 283.04 274.26" fill="black"/>
<path d="M286.17 274.74C286.17 274.74 288.69 267.61 285.77 269.5C283.62 270.89 284.17 274.26 283.06 274.26" stroke="#263238" stroke-miterlimit="10" stroke-linecap="round"/>
<path d="M269 269.37C269 269.37 270.57 268.26 273.62 269.28C276.67 270.3 280.27 274.73 281.1 274.36C281.876 273.915 282.466 273.205 282.76 272.36C283.22 271.44 284.06 270.89 284.61 271.99C285.16 273.09 283.5 276.34 283.5 276.34C283.5 276.34 282.5 277.05 280.05 276.48C277.284 275.815 274.473 275.35 271.64 275.09" fill="white"/>
<path opacity="0.1" d="M269 269.37C269 269.37 270.57 268.26 273.62 269.28C276.67 270.3 280.27 274.73 281.1 274.36C281.876 273.915 282.466 273.205 282.76 272.36C283.22 271.44 284.06 270.89 284.61 271.99C285.16 273.09 283.5 276.34 283.5 276.34C283.5 276.34 282.5 277.05 280.05 276.48C277.6 275.91 270.98 274.15 269.47 274.15" fill="black"/>
<path d="M269 269.37C269 269.37 270.57 268.26 273.62 269.28C276.67 270.3 280.27 274.73 281.1 274.36C281.876 273.915 282.466 273.205 282.76 272.36C283.22 271.44 284.06 270.89 284.61 271.99C285.16 273.09 283.5 276.34 283.5 276.34C283.5 276.34 282.5 277.05 280.05 276.48C277.284 275.815 274.473 275.35 271.64 275.09" stroke="#263238" stroke-miterlimit="10" stroke-linecap="round"/>
<path d="M181.32 236.44C181.32 236.44 180.83 242.01 178.54 245.77C176.25 249.53 171.54 251 171.54 251L162.22 279.64L167.09 299C167.09 299 158.41 312.2 155 320.22C151.59 328.24 155.69 337.31 159.29 341.07C162.89 344.83 167.67 349.93 179.87 349.45C196.87 348.78 208.87 350.33 214.32 343.95C219.77 337.57 220.32 325.52 213.84 316.43C209.92 310.9 204.57 298.95 204.57 298.95L209.87 279L201.75 251C201.75 251 196.86 250.72 193.92 247.12C190.98 243.52 191.63 236.97 191.63 236.97L181.32 236.44Z" fill="white"/>
<path opacity="0.1" d="M181.32 236.44C181.32 236.44 180.83 242.01 178.54 245.77C176.25 249.53 171.54 251 171.54 251L162.22 279.64L167.09 299C167.09 299 158.41 312.2 155 320.22C151.59 328.24 155.69 337.31 159.29 341.07C162.89 344.83 167.67 349.93 179.87 349.45C196.87 348.78 208.87 350.33 214.32 343.95C219.77 337.57 220.32 325.52 213.84 316.43C209.92 310.9 204.57 298.95 204.57 298.95L209.87 279L201.75 251C201.75 251 196.86 250.72 193.92 247.12C190.98 243.52 191.63 236.97 191.63 236.97L181.32 236.44Z" fill="black"/>
<path d="M181.32 236.44C181.32 236.44 180.83 242.01 178.54 245.77C176.25 249.53 171.54 251 171.54 251L162.22 279.64L167.09 299C167.09 299 158.41 312.2 155 320.22C151.59 328.24 155.69 337.31 159.29 341.07C162.89 344.83 167.67 349.93 179.87 349.45C196.87 348.78 208.87 350.33 214.32 343.95C219.77 337.57 220.32 325.52 213.84 316.43C209.92 310.9 204.57 298.95 204.57 298.95L209.87 279L201.75 251C201.75 251 196.86 250.72 193.92 247.12C190.98 243.52 191.63 236.97 191.63 236.97L181.32 236.44Z" stroke="#263238" stroke-miterlimit="10" stroke-linecap="round"/>
<path d="M209.87 279L201.75 251C200.936 250.943 200.129 250.809 199.34 250.6C200.28 257.11 199.16 260.37 199.16 260.37C198.999 261.798 198.498 263.168 197.7 264.363C196.901 265.558 195.828 266.545 194.57 267.24C190.16 269.86 181.81 270.35 176.57 266.1C172.57 262.89 173.32 254.1 173.91 249.97C173.138 250.383 172.332 250.728 171.5 251L162.18 279.64L167.09 299H204.55L209.87 279Z" fill="#263238" stroke="#263238" stroke-miterlimit="10" stroke-linecap="round"/>
<path d="M173.39 223.45C173.39 223.45 170.39 219.53 169.33 222.45C168.27 225.37 173.54 227.96 173.54 227.96L173.39 223.45Z" fill="white"/>
<path opacity="0.1" d="M173.39 223.45C173.39 223.45 170.39 219.53 169.33 222.45C168.27 225.37 173.54 227.96 173.54 227.96L173.39 223.45Z" fill="black"/>
<path d="M173.39 223.45C173.39 223.45 170.39 219.53 169.33 222.45C168.27 225.37 173.54 227.96 173.54 227.96L173.39 223.45Z" stroke="#263238" stroke-miterlimit="10" stroke-linecap="round"/>
<path d="M199.92 223.45C199.92 223.45 202.97 219.53 203.98 222.45C204.99 225.37 199.78 227.96 199.78 227.96L199.92 223.45Z" fill="white"/>
<path opacity="0.1" d="M199.92 223.45C199.92 223.45 202.97 219.53 203.98 222.45C204.99 225.37 199.78 227.96 199.78 227.96L199.92 223.45Z" fill="black"/>
<path d="M199.92 223.45C199.92 223.45 202.97 219.53 203.98 222.45C204.99 225.37 199.78 227.96 199.78 227.96L199.92 223.45Z" stroke="#263238" stroke-miterlimit="10" stroke-linecap="round"/>
<path d="M186.79 240.35C183.3 240.35 179.952 238.963 177.484 236.496C175.017 234.028 173.63 230.68 173.63 227.19V207C173.629 206.356 173.754 205.717 174 205.122C174.246 204.526 174.607 203.985 175.062 203.529C175.517 203.073 176.057 202.711 176.653 202.464C177.248 202.217 177.886 202.09 178.53 202.09H195C195.652 202.078 196.3 202.196 196.907 202.438C197.513 202.679 198.065 203.039 198.53 203.496C198.996 203.953 199.365 204.498 199.618 205.1C199.87 205.702 200 206.348 200 207V227.22C199.995 228.95 199.649 230.661 198.982 232.257C198.316 233.853 197.341 235.302 196.114 236.521C194.888 237.74 193.433 238.706 191.833 239.363C190.233 240.02 188.52 240.355 186.79 240.35V240.35Z" fill="white"/>
<path opacity="0.1" d="M186.79 240.35C183.3 240.35 179.952 238.963 177.484 236.496C175.017 234.028 173.63 230.68 173.63 227.19V207C173.629 206.356 173.754 205.717 174 205.122C174.246 204.526 174.607 203.985 175.062 203.529C175.517 203.073 176.057 202.711 176.653 202.464C177.248 202.217 177.886 202.09 178.53 202.09H195C195.652 202.078 196.3 202.196 196.907 202.438C197.513 202.679 198.065 203.039 198.53 203.496C198.996 203.953 199.365 204.498 199.618 205.1C199.87 205.702 200 206.348 200 207V227.22C199.995 228.95 199.649 230.661 198.982 232.257C198.316 233.853 197.341 235.302 196.114 236.521C194.888 237.74 193.433 238.706 191.833 239.363C190.233 240.02 188.52 240.355 186.79 240.35V240.35Z" fill="black"/>
<path d="M186.79 240.35C183.3 240.35 179.952 238.963 177.484 236.496C175.017 234.028 173.63 230.68 173.63 227.19V207C173.629 206.356 173.754 205.717 174 205.122C174.246 204.526 174.607 203.985 175.062 203.529C175.517 203.073 176.057 202.711 176.653 202.464C177.248 202.217 177.886 202.09 178.53 202.09H195C195.652 202.078 196.3 202.196 196.907 202.438C197.513 202.679 198.065 203.039 198.53 203.496C198.996 203.953 199.365 204.498 199.618 205.1C199.87 205.702 200 206.348 200 207V227.22C199.995 228.95 199.649 230.661 198.982 232.257C198.316 233.853 197.341 235.302 196.114 236.521C194.888 237.74 193.433 238.706 191.833 239.363C190.233 240.02 188.52 240.355 186.79 240.35V240.35Z" stroke="#263238" stroke-miterlimit="10" stroke-linecap="round"/>
<path d="M177 218.23C177.903 218.829 178.962 219.148 180.045 219.148C181.128 219.148 182.187 218.829 183.09 218.23" stroke="#263238" stroke-miterlimit="10" stroke-linecap="round"/>
<path d="M190.64 218.23C191.541 218.829 192.598 219.148 193.68 219.148C194.762 219.148 195.819 218.829 196.72 218.23" stroke="#263238" stroke-miterlimit="10" stroke-linecap="round"/>
<path d="M188.03 216.06L188.9 224.46H185.42" stroke="#263238" stroke-miterlimit="10" stroke-linecap="round"/>
<path d="M185.56 229.24H189.04" stroke="#263238" stroke-miterlimit="10" stroke-linecap="round"/>
<path d="M186.92 202.06H178.53C177.886 202.06 177.248 202.187 176.653 202.434C176.057 202.681 175.517 203.043 175.062 203.499C174.607 203.955 174.246 204.496 174 205.092C173.754 205.687 173.629 206.326 173.63 206.97V216.97C179 212.3 185.25 204.27 186.92 202.06Z" fill="#263238" stroke="#263238" stroke-miterlimit="10"/>
<path d="M200 217.35V207C200 205.698 199.483 204.449 198.562 203.528C197.641 202.607 196.392 202.09 195.09 202.09H187.58C189.31 207.57 196 214 200 217.35Z" fill="#263238" stroke="#263238" stroke-miterlimit="10"/>
<path d="M176.43 214.32C176.43 214.32 178 211.56 183 212" stroke="#263238" stroke-width="2" stroke-miterlimit="10" stroke-linecap="round"/>
<path d="M189.62 212C190.95 211.445 192.432 211.374 193.809 211.798C195.186 212.221 196.372 213.114 197.16 214.32" stroke="#263238" stroke-width="2" stroke-miterlimit="10" stroke-linecap="round"/>
<path d="M155 320.22C151.56 328.22 155.69 337.31 159.29 341.07C162.89 344.83 167.67 349.93 179.87 349.45C196.87 348.78 208.87 350.33 214.32 343.95C219.77 337.57 220.32 325.52 213.84 316.43C212.375 314.278 211.039 312.041 209.84 309.73H160.45C158.436 313.121 156.617 316.623 155 320.22V320.22Z" fill="#263238" stroke="#263238" stroke-miterlimit="10" stroke-linecap="round"/>
<path d="M181.76 336.45C173.15 327.52 157.52 323.05 149.86 321.77C142.2 320.49 128.17 312.77 128.17 312.77C128.17 312.77 119.87 312.49 120.51 322.38C121.15 332.27 145.07 343.76 154.33 348.86C158.489 351.207 163.151 352.522 167.923 352.696C172.696 352.87 177.441 351.898 181.76 349.86" fill="#263238"/>
<path d="M181.76 336.45C173.15 327.52 157.52 323.05 149.86 321.77C142.2 320.49 128.17 312.77 128.17 312.77C128.17 312.77 119.87 312.49 120.51 322.38C121.15 332.27 145.07 343.76 154.33 348.86C158.489 351.207 163.151 352.522 167.923 352.696C172.696 352.87 177.441 351.898 181.76 349.86" stroke="#263238" stroke-miterlimit="10" stroke-linecap="round"/>
<path d="M187.15 336.77C195.76 327.84 211.39 323.37 219.05 322.09C226.71 320.81 238.62 314.29 238.62 314.29C238.62 314.29 249.04 312.84 248.4 322.73C247.76 332.62 223.84 344.1 214.58 349.21C210.42 351.554 205.759 352.868 200.987 353.042C196.214 353.216 191.47 352.245 187.15 350.21" fill="#263238"/>
<path d="M187.15 336.77C195.76 327.84 211.39 323.37 219.05 322.09C226.71 320.81 238.62 314.29 238.62 314.29C238.62 314.29 249.04 312.84 248.4 322.73C247.76 332.62 223.84 344.1 214.58 349.21C210.42 351.554 205.759 352.868 200.987 353.042C196.214 353.216 191.47 352.245 187.15 350.21" stroke="#263238" stroke-miterlimit="10" stroke-linecap="round"/>
<path d="M223.09 352.38C223.09 352.38 224.27 351.6 223.68 349.63C223.09 347.66 219.94 349.23 217.77 349.23C215.6 349.23 207.33 348.44 203.4 348.05C200.03 347.71 194.52 347.81 192.99 347.84C193.212 350.263 192.715 352.698 191.56 354.84L192.33 354.92C199.03 355.58 201.94 355.71 203.99 356.14C207.73 356.93 211.86 360.08 215.99 359.89C220.12 359.7 223.87 356.89 223.87 355.16C223.911 354.174 223.638 353.201 223.09 352.38V352.38Z" fill="white"/>
<path opacity="0.1" d="M223.09 352.38C223.09 352.38 224.27 351.6 223.68 349.63C223.09 347.66 219.94 349.23 217.77 349.23C215.6 349.23 207.33 348.44 203.4 348.05C200.03 347.71 194.52 347.81 192.99 347.84C193.212 350.263 192.715 352.698 191.56 354.84L192.33 354.92C199.03 355.58 201.94 355.71 203.99 356.14C207.73 356.93 211.86 360.08 215.99 359.89C220.12 359.7 223.87 356.89 223.87 355.16C223.911 354.174 223.638 353.201 223.09 352.38V352.38Z" fill="black"/>
<path d="M223.09 352.38C223.09 352.38 224.27 351.6 223.68 349.63C223.09 347.66 219.94 349.23 217.77 349.23C215.6 349.23 207.33 348.44 203.4 348.05C200.03 347.71 194.52 347.81 192.99 347.84C193.212 350.263 192.715 352.698 191.56 354.84L192.33 354.92C199.03 355.58 201.94 355.71 203.99 356.14C207.73 356.93 211.86 360.08 215.99 359.89C220.12 359.7 223.87 356.89 223.87 355.16C223.911 354.174 223.638 353.201 223.09 352.38V352.38Z" stroke="#263238" stroke-miterlimit="10" stroke-linecap="round"/>
<path d="M223.09 352.38C221.941 352.574 220.768 352.574 219.62 352.38" stroke="#263238" stroke-miterlimit="10" stroke-linecap="round"/>
<path d="M223.88 355.14C222.352 355.257 220.818 355.257 219.29 355.14" stroke="#263238" stroke-miterlimit="10" stroke-linecap="round"/>
<path d="M218.52 356.9C219.596 357.501 220.849 357.707 222.06 357.48" stroke="#263238" stroke-miterlimit="10" stroke-linecap="round"/>
<path d="M217 358.19C218.019 358.68 219.16 358.857 220.28 358.7" stroke="#263238" stroke-miterlimit="10" stroke-linecap="round"/>
<path d="M191.56 354.82C192.715 352.678 193.212 350.243 192.99 347.82H192.56C192.56 347.82 177.4 344.7 164.8 337C152.2 329.3 136.24 317.51 128.17 312.78C120.1 308.05 112.41 315.14 113.17 322.63C113.93 330.12 120.06 334.05 131.09 338.63C142.12 343.21 162.21 350.25 172.84 352.41C178.35 353.5 185.45 354.25 191.56 354.82Z" fill="#263238" stroke="#263238" stroke-miterlimit="10" stroke-linecap="round"/>
<path d="M173.85 356.9C172.699 354.757 172.205 352.322 172.43 349.9H172.85C172.85 349.9 188.01 346.75 200.62 339.07C213.23 331.39 229.17 319.57 237.25 314.84C245.33 310.11 253 317.21 252.25 324.69C251.5 332.17 245.36 336.11 234.33 340.64C223.3 345.17 203.22 352.26 192.58 354.43C187.06 355.57 180 356.32 173.85 356.9Z" fill="#263238" stroke="#263238" stroke-miterlimit="10" stroke-linecap="round"/>
<path d="M172.43 349.92C172.43 349.92 157.84 350.49 153.21 350.17C148.58 349.85 145.07 347.61 143.8 348.73C142.53 349.85 144.12 351.6 144.12 351.6C144.12 351.6 143.64 354.31 144.92 355.75C146.2 357.19 147.92 358.46 153.37 360.06C158.82 361.66 164.37 359.4 167.37 358.6L173.82 356.9C173.82 356.9 172.34 354.61 172.43 349.92Z" fill="white"/>
<path opacity="0.1" d="M172.43 349.92C172.43 349.92 157.84 350.49 153.21 350.17C148.58 349.85 145.07 347.61 143.8 348.73C142.53 349.85 144.12 351.6 144.12 351.6C144.12 351.6 143.64 354.31 144.92 355.75C146.2 357.19 147.92 358.46 153.37 360.06C158.82 361.66 164.37 359.4 167.37 358.6L173.82 356.9C173.82 356.9 172.34 354.61 172.43 349.92Z" fill="black"/>
<path d="M172.43 349.92C172.43 349.92 157.84 350.49 153.21 350.17C148.58 349.85 145.07 347.61 143.8 348.73C142.53 349.85 144.12 351.6 144.12 351.6C144.12 351.6 143.64 354.31 144.92 355.75C146.2 357.19 147.92 358.46 153.37 360.06C158.82 361.66 164.37 359.4 167.37 358.6L173.82 356.9C173.82 356.9 172.34 354.61 172.43 349.92Z" stroke="#263238" stroke-miterlimit="10" stroke-linecap="round"/>
<path d="M144.12 351.6C144.45 351.379 144.838 351.26 145.235 351.26C145.632 351.26 146.02 351.379 146.35 351.6C147.114 352.121 147.986 352.463 148.9 352.6" stroke="#263238" stroke-miterlimit="10" stroke-linecap="round"/>
<path d="M144.3 354.7C144.555 354.47 144.862 354.306 145.195 354.222C145.528 354.139 145.877 354.138 146.21 354.22C146.971 354.437 147.758 354.551 148.55 354.56" stroke="#263238" stroke-miterlimit="10" stroke-linecap="round"/>
<path d="M146.74 357.23C146.74 357.23 147.02 356.42 147.55 356.42C148.08 356.42 150.27 356.71 150.84 356.66" stroke="#263238" stroke-miterlimit="10" stroke-linecap="round"/>
<path d="M149.84 358.81C149.84 358.81 150.37 358.09 150.84 358.05C151.443 357.966 152.051 357.916 152.66 357.9" stroke="#263238" stroke-miterlimit="10" stroke-linecap="round"/>
<path d="M179.85 349.45C179.85 349.45 210.37 334.45 222.7 325.92" stroke="white" stroke-miterlimit="10" stroke-linecap="round"/>
<path d="M145.4 324C145.4 324 171.48 344.39 186.18 345.81" stroke="white" stroke-miterlimit="10" stroke-linecap="round"/>
<path d="M157.61 323.45C157.61 323.45 177.45 329.6 182.61 337.54" stroke="white" stroke-miterlimit="10" stroke-linecap="round"/>
<path d="M189.56 334.76C189.56 334.76 201.86 326.03 214.56 323.45" stroke="white" stroke-miterlimit="10" stroke-linecap="round"/>
</svg>
